<?xml version="1.0" encoding="UTF-8" standalone="no"?>
<!-- Created with Inkscape (http://www.inkscape.org/) -->

<svg
   xmlns:dc="http://purl.org/dc/elements/1.1/"
   xmlns:cc="http://creativecommons.org/ns#"
   xmlns:rdf="http://www.w3.org/1999/02/22-rdf-syntax-ns#"
   xmlns:svg="http://www.w3.org/2000/svg"
   xmlns="http://www.w3.org/2000/svg"
   xmlns:sodipodi="http://sodipodi.sourceforge.net/DTD/sodipodi-0.dtd"
   xmlns:inkscape="http://www.inkscape.org/namespaces/inkscape"
   id="svg2"
   version="1.1"
   inkscape:version="0.48.3.1 r9886"
   width="400"
   height="273.75"
   xml:space="preserve"
   sodipodi:docname="adcrefNoref.eps"><metadata
     id="metadata8"><rdf:RDF><cc:Work
         rdf:about=""><dc:format>image/svg+xml</dc:format><dc:type
           rdf:resource="http://purl.org/dc/dcmitype/StillImage" /><dc:title></dc:title></cc:Work></rdf:RDF></metadata><defs
     id="defs6"><clipPath
       clipPathUnits="userSpaceOnUse"
       id="clipPath18"><path
         d="m 0,2185.68 3200,0 0,-2170.0003 -3200,0 0,2170.0003 z"
         id="path20" /></clipPath></defs><sodipodi:namedview
     pagecolor="#ffffff"
     bordercolor="#666666"
     borderopacity="1"
     objecttolerance="10"
     gridtolerance="10"
     guidetolerance="10"
     inkscape:pageopacity="0"
     inkscape:pageshadow="2"
     inkscape:window-width="1535"
     inkscape:window-height="876"
     id="namedview4"
     showgrid="false"
     inkscape:zoom="1.7242009"
     inkscape:cx="132.1915"
     inkscape:cy="144.83226"
     inkscape:window-x="65"
     inkscape:window-y="24"
     inkscape:window-maximized="1"
     inkscape:current-layer="g10" /><g
     id="g10"
     inkscape:groupmode="layer"
     inkscape:label="ink_ext_XXXXXX"
     transform="matrix(1.25,0,0,-1.25,0,273.75)"><g
       id="g12"
       transform="scale(0.1,0.1)"><g
         id="g14"><g
           id="g16"
           clip-path="url(#clipPath18)"><path
             d="m 228.441,737.594 31.481,0 m 2938.008,0 -31.52,0"
             style="fill:none;stroke:#000000;stroke-opacity:1;stroke-width:15;stroke-linecap:butt;stroke-linejoin:miter;stroke-miterlimit:3.8;stroke-dasharray:none"
             id="path22" /><g
             id="g24"
             transform="scale(10,10)"><text
               transform="matrix(1,0,0,-1,11.841,70.4207)"
               id="text26"><tspan
                 style="fill:#000000;fill-opacity:1;fill-rule:nonzero;stroke:none;font-family:DejaVu Sans;font-variant:normal;font-weight:normal;font-size:10;writing-mode:lr;-inkscape-font-specification:DejaVuSans"
                 x="0"
                 y="0"
                 id="tspan28">0</tspan></text>
</g><path
             d="m 228.441,972.055 31.481,0 m 2938.008,0 -31.52,0"
             style="fill:none;stroke:#000000;stroke-opacity:1;stroke-width:15;stroke-linecap:butt;stroke-linejoin:miter;stroke-miterlimit:3.8;stroke-dasharray:none"
             id="path30" /><g
             id="g32"
             transform="scale(10,10)"><text
               transform="matrix(1,0,0,-1,-0.659375,93.8707)"
               id="text34"><tspan
                 style="fill:#000000;fill-opacity:1;fill-rule:nonzero;stroke:none;font-family:DejaVu Sans;font-variant:normal;font-weight:normal;font-size:10;writing-mode:lr;-inkscape-font-specification:DejaVuSans"
                 x="0 4.99535 7.497811 12.493941"
                 y="0"
                 sodipodi:role="line"
                 id="tspan36">0.05</tspan></text>
</g><path
             d="m 228.441,1206.54 31.481,0 m 2938.008,0 -31.52,0"
             style="fill:none;stroke:#000000;stroke-opacity:1;stroke-width:15;stroke-linecap:butt;stroke-linejoin:miter;stroke-miterlimit:3.8;stroke-dasharray:none"
             id="path38" /><g
             id="g40"
             transform="scale(10,10)"><text
               transform="matrix(1,0,0,-1,4.34102,117.321)"
               id="text42"><tspan
                 style="fill:#000000;fill-opacity:1;fill-rule:nonzero;stroke:none;font-family:DejaVu Sans;font-variant:normal;font-weight:normal;font-size:10;writing-mode:lr;-inkscape-font-specification:DejaVuSans"
                 x="0 4.99535 7.497811"
                 y="0"
                 sodipodi:role="line"
                 id="tspan44">0.1</tspan></text>
</g><path
             d="m 228.441,1441.04 31.481,0 m 2938.008,0 -31.52,0"
             style="fill:none;stroke:#000000;stroke-opacity:1;stroke-width:15;stroke-linecap:butt;stroke-linejoin:miter;stroke-miterlimit:3.8;stroke-dasharray:none"
             id="path46" /><g
             id="g48"
             transform="scale(10,10)"><text
               transform="matrix(1,0,0,-1,-0.659375,140.771)"
               id="text50"><tspan
                 style="fill:#000000;fill-opacity:1;fill-rule:nonzero;stroke:none;font-family:DejaVu Sans;font-variant:normal;font-weight:normal;font-size:10;writing-mode:lr;-inkscape-font-specification:DejaVuSans"
                 x="0 4.99535 7.497811 12.493941"
                 y="0"
                 sodipodi:role="line"
                 id="tspan52">0.15</tspan></text>
</g><path
             d="m 228.441,1675.56 31.481,0 m 2938.008,0 -31.52,0"
             style="fill:none;stroke:#000000;stroke-opacity:1;stroke-width:15;stroke-linecap:butt;stroke-linejoin:miter;stroke-miterlimit:3.8;stroke-dasharray:none"
             id="path54" /><g
             id="g56"
             transform="scale(10,10)"><text
               transform="matrix(1,0,0,-1,4.34102,164.221)"
               id="text58"><tspan
                 style="fill:#000000;fill-opacity:1;fill-rule:nonzero;stroke:none;font-family:DejaVu Sans;font-variant:normal;font-weight:normal;font-size:10;writing-mode:lr;-inkscape-font-specification:DejaVuSans"
                 x="0 4.99535 7.497811"
                 y="0"
                 sodipodi:role="line"
                 id="tspan60">0.2</tspan></text>
</g><path
             d="m 228.441,1910.56 31.481,0 m 2938.008,0 -31.52,0"
             style="fill:none;stroke:#000000;stroke-opacity:1;stroke-width:15;stroke-linecap:butt;stroke-linejoin:miter;stroke-miterlimit:3.8;stroke-dasharray:none"
             id="path62" /><g
             id="g64"
             transform="scale(10,10)"><text
               transform="matrix(1,0,0,-1,-0.659375,187.721)"
               id="text66"><tspan
                 style="fill:#000000;fill-opacity:1;fill-rule:nonzero;stroke:none;font-family:DejaVu Sans;font-variant:normal;font-weight:normal;font-size:10;writing-mode:lr;-inkscape-font-specification:DejaVuSans"
                 x="0 4.99535 7.497811 12.493941"
                 y="0"
                 sodipodi:role="line"
                 id="tspan68">0.25</tspan></text>
<text
               transform="matrix(0.70710678,-0.70710678,-0.70710678,-0.70710678,0,0)"
               id="text70"
               x="2.3229158"
               y="-137.80138"
               style="font-size:12.00000381px"><tspan
                 style="font-size:10.00000572px;font-variant:normal;font-weight:normal;writing-mode:lr-tb;fill:#000000;fill-opacity:1;fill-rule:nonzero;stroke:none;font-family:DejaVu Sans;-inkscape-font-specification:DejaVuSans"
                 sodipodi:role="line"
                 id="tspan72"
                 x="2.3229158"
                 y="-137.80138" /><tspan
                 style="font-size:10.00000572px;font-variant:normal;font-weight:normal;writing-mode:lr-tb;fill:#000000;fill-opacity:1;fill-rule:nonzero;stroke:none;font-family:DejaVu Sans;-inkscape-font-specification:DejaVuSans"
                 sodipodi:role="line"
                 id="tspan74"
                 x="2.3229158"
                 y="-125.30137" /><tspan
                 style="font-size:10.00000572px;font-variant:normal;font-weight:normal;writing-mode:lr-tb;fill:#000000;fill-opacity:1;fill-rule:nonzero;stroke:none;font-family:DejaVu Sans;-inkscape-font-specification:DejaVuSans"
                 sodipodi:role="line"
                 id="tspan76"
                 x="2.3229158"
                 y="-112.80136" /><tspan
                 style="font-size:10.00000572px;font-variant:normal;font-weight:normal;writing-mode:lr-tb;fill:#000000;fill-opacity:1;fill-rule:nonzero;stroke:none;font-family:DejaVu Sans;-inkscape-font-specification:DejaVuSans"
                 sodipodi:role="line"
                 id="tspan78"
                 x="2.3229158"
                 y="-100.30135"><tspan
   style="font-size:8px"
   id="tspan3167">ADCensusB(mask)unRe</tspan>f</tspan></text>
</g><path
             d="m 228.441,737.555 2969.49,0 0,1313.48 -2969.49,0 0,-1313.48 z"
             style="fill:none;stroke:#000000;stroke-opacity:1;stroke-width:15;stroke-linecap:butt;stroke-linejoin:miter;stroke-miterlimit:3.8;stroke-dasharray:none"
             id="path80" /><g
             id="g82"
             transform="scale(10,10)"><text
               transform="scale(1,-1)"
               id="text84"
               x="119.704"
               y="-208.459"><tspan
                 style="font-size:11.19999981px;font-variant:normal;font-weight:normal;writing-mode:lr-tb;fill:#000000;fill-opacity:1;fill-rule:nonzero;stroke:none;font-family:DejaVu Sans;-inkscape-font-specification:DejaVuSans-Bold"
                 sodipodi:role="line"
                 id="tspan86"
                 x="119.704"
                 y="-208.459">Average Outliers</tspan></text>
<text
               transform="matrix(1,0,0,-1,279.544,196.8559)"
               id="text88"><tspan
                 style="fill:#000000;fill-opacity:1;fill-rule:nonzero;stroke:none;font-family:DejaVu Sans;font-variant:normal;font-weight:normal;font-size:7.5;writing-mode:lr;-inkscape-font-specification:DejaVuSans"
                 x="0 3.7467075 7.493415 9.993054 13.7393715"
                 y="0"
                 sodipodi:role="line"
                 id="tspan90">17-29</tspan></text>
</g><path
             d="m 3019.96,1971.3 122.027,0 0,50 -122.027,0 0,-50 z"
             style="fill:#ff0000;fill-opacity:1;fill-rule:nonzero;stroke:none"
             id="path92" /><path
             d="m 3019.96,1976.58 130.039,0 0,50 -130.039,0 0,-50 z"
             style="fill:none;stroke:#000000;stroke-opacity:1;stroke-width:5.19008;stroke-linecap:butt;stroke-linejoin:miter;stroke-miterlimit:3.8;stroke-dasharray:none"
             id="path94" /><path
             d="m 590.941,737.602 106.988,0 0,1079.45 -106.988,0 0,-1079.45 z"
             style="fill:#ff0000;fill-opacity:1;fill-rule:nonzero;stroke:none"
             id="path96" /><path
             d="m 590.941,737.594 106.48,0 0,1078.95 -106.48,0 0,-1078.95 z"
             style="fill:none;stroke:#000000;stroke-opacity:1;stroke-width:7.5;stroke-linecap:butt;stroke-linejoin:miter;stroke-miterlimit:3.8;stroke-dasharray:none"
             id="path98" /><path
             d="m 1184.41,737.602 107.5,0 0,1079.45 -107.5,0 0,-1079.45 z"
             style="fill:#ff0000;fill-opacity:1;fill-rule:nonzero;stroke:none"
             id="path100" /><path
             d="m 1184.41,737.594 106.949,0 0,1078.95 -106.949,0 0,-1078.95 z"
             style="fill:none;stroke:#000000;stroke-opacity:1;stroke-width:7.5;stroke-linecap:butt;stroke-linejoin:miter;stroke-miterlimit:3.8;stroke-dasharray:none"
             id="path102" /><path
             d="m 1778.44,737.602 107.5,0 0,1266.95 -107.5,0 0,-1266.95 z"
             style="fill:#ff0000;fill-opacity:1;fill-rule:nonzero;stroke:none"
             id="path104" /><path
             d="m 1778.44,737.594 106.988,0 0,1266.45 -106.988,0 0,-1266.45 z"
             style="fill:none;stroke:#000000;stroke-opacity:1;stroke-width:7.5;stroke-linecap:butt;stroke-linejoin:miter;stroke-miterlimit:3.8;stroke-dasharray:none"
             id="path106" /><path
             d="m 2372.42,737.602 107.5,0 0,1266.95 -107.5,0 0,-1266.95 z"
             style="fill:#ff0000;fill-opacity:1;fill-rule:nonzero;stroke:none"
             id="path108" /><path
             d="m 2372.42,737.594 106.988,0 0,1266.45 -106.988,0 0,-1266.45 z"
             style="fill:none;stroke:#000000;stroke-opacity:1;stroke-width:7.5;stroke-linecap:butt;stroke-linejoin:miter;stroke-miterlimit:3.8;stroke-dasharray:none"
             id="path110" /><g
             id="g112"
             transform="scale(10,10)"><text
               transform="matrix(1,0,0,-1,279.544,188.456)"
               id="text114"><tspan
                 style="fill:#000000;fill-opacity:1;fill-rule:nonzero;stroke:none;font-family:DejaVu Sans;font-variant:normal;font-weight:normal;font-size:7.5;writing-mode:lr;-inkscape-font-specification:DejaVuSans"
                 x="0 3.7463175 7.493025 9.992664 13.7393715"
                 y="0"
                 sodipodi:role="line"
                 id="tspan116">30-49</tspan></text>
</g><path
             d="m 3009.3,1892.63 138.051,0 0,50 -138.051,0 0,-50 z"
             style="fill:#00ff00;fill-opacity:1;fill-rule:nonzero;stroke:none"
             id="path118" /><path
             d="m 3019.96,1892.63 132.148,0 0,50 -132.148,0 0,-50 z"
             style="fill:none;stroke:#000000;stroke-opacity:1;stroke-width:5.23173;stroke-linecap:butt;stroke-linejoin:miter;stroke-miterlimit:3.8;stroke-dasharray:none"
             id="path120" /><path
             d="m 709.41,737.594 107.5,0 0,1032.5 -107.5,0 0,-1032.5 z"
             style="fill:#00ff00;fill-opacity:1;fill-rule:nonzero;stroke:none"
             id="path122" /><path
             d="m 709.41,737.602 106.949,0 0,1031.95 -106.949,0 0,-1031.95 z"
             style="fill:none;stroke:#000000;stroke-opacity:1;stroke-width:7.5;stroke-linecap:butt;stroke-linejoin:miter;stroke-miterlimit:3.8;stroke-dasharray:none"
             id="path124" /><path
             d="m 1303.44,737.594 107.5,0 0,1032.5 -107.5,0 0,-1032.5 z"
             style="fill:#00ff00;fill-opacity:1;fill-rule:nonzero;stroke:none"
             id="path126" /><path
             d="m 1303.44,737.602 106.988,0 0,1031.95 -106.988,0 0,-1031.95 z"
             style="fill:none;stroke:#000000;stroke-opacity:1;stroke-width:7.5;stroke-linecap:butt;stroke-linejoin:miter;stroke-miterlimit:3.8;stroke-dasharray:none"
             id="path128" /><path
             d="m 1897.42,737.594 107.5,0 0,1220 -107.5,0 0,-1220 z"
             style="fill:#00ff00;fill-opacity:1;fill-rule:nonzero;stroke:none"
             id="path130" /><path
             d="m 1897.42,737.602 106.988,0 0,1219.45 -106.988,0 0,-1219.45 z"
             style="fill:none;stroke:#000000;stroke-opacity:1;stroke-width:7.5;stroke-linecap:butt;stroke-linejoin:miter;stroke-miterlimit:3.8;stroke-dasharray:none"
             id="path132" /><path
             d="m 2491.41,737.594 107.031,0 0,1220 -107.031,0 0,-1220 z"
             style="fill:#00ff00;fill-opacity:1;fill-rule:nonzero;stroke:none"
             id="path134" /><path
             d="m 2491.41,737.602 106.52,0 0,1219.45 -106.52,0 0,-1219.45 z"
             style="fill:none;stroke:#000000;stroke-opacity:1;stroke-width:7.5;stroke-linecap:butt;stroke-linejoin:miter;stroke-miterlimit:3.8;stroke-dasharray:none"
             id="path136" /><g
             id="g138"
             transform="scale(10,10)"><text
               transform="matrix(1,0,0,-1,279.544,180.056)"
               id="text140"><tspan
                 style="fill:#000000;fill-opacity:1;fill-rule:nonzero;stroke:none;font-family:DejaVu Sans;font-variant:normal;font-weight:normal;font-size:7.5;writing-mode:lr;-inkscape-font-specification:DejaVuSans"
                 x="0 3.7463175 7.493025 9.992664 13.7393715"
                 y="0"
                 sodipodi:role="line"
                 id="tspan142">50-69</tspan></text>
</g><path
             d="m 3014.65,1808.61 138.012,0 0,50 -138.012,0 0,-50 z"
             style="fill:#0000ff;fill-opacity:1;fill-rule:nonzero;stroke:none"
             id="path144" /><path
             d="m 3014.65,1803.26 139.73,0 0,50 -139.73,0 0,-50 z"
             style="fill:none;stroke:#000000;stroke-opacity:1;stroke-width:5.38039;stroke-linecap:butt;stroke-linejoin:miter;stroke-miterlimit:3.8;stroke-dasharray:none"
             id="path146" /><path
             d="m 828.441,737.594 106.988,0 0,845 -106.988,0 0,-845 z"
             style="fill:#0000ff;fill-opacity:1;fill-rule:nonzero;stroke:none"
             id="path148" /><path
             d="m 828.441,737.602 106.48,0 0,844.453 -106.48,0 0,-844.453 z"
             style="fill:none;stroke:#000000;stroke-opacity:1;stroke-width:7.5;stroke-linecap:butt;stroke-linejoin:miter;stroke-miterlimit:3.8;stroke-dasharray:none"
             id="path150" /><path
             d="m 1421.91,737.594 107.5,0 0,845 -107.5,0 0,-845 z"
             style="fill:#0000ff;fill-opacity:1;fill-rule:nonzero;stroke:none"
             id="path152" /><path
             d="m 1421.91,737.602 106.949,0 0,844.453 -106.949,0 0,-844.453 z"
             style="fill:none;stroke:#000000;stroke-opacity:1;stroke-width:7.5;stroke-linecap:butt;stroke-linejoin:miter;stroke-miterlimit:3.8;stroke-dasharray:none"
             id="path154" /><path
             d="m 2015.94,737.602 107.5,0 0,1079.45 -107.5,0 0,-1079.45 z"
             style="fill:#0000ff;fill-opacity:1;fill-rule:nonzero;stroke:none"
             id="path156" /><path
             d="m 2015.94,737.594 106.988,0 0,1078.95 -106.988,0 0,-1078.95 z"
             style="fill:none;stroke:#000000;stroke-opacity:1;stroke-width:7.5;stroke-linecap:butt;stroke-linejoin:miter;stroke-miterlimit:3.8;stroke-dasharray:none"
             id="path158" /><path
             d="m 2609.92,737.594 107.5,0 0,1032.5 -107.5,0 0,-1032.5 z"
             style="fill:#0000ff;fill-opacity:1;fill-rule:nonzero;stroke:none"
             id="path160" /><path
             d="m 2609.92,737.602 106.988,0 0,1031.95 -106.988,0 0,-1031.95 z"
             style="fill:none;stroke:#000000;stroke-opacity:1;stroke-width:7.5;stroke-linecap:butt;stroke-linejoin:miter;stroke-miterlimit:3.8;stroke-dasharray:none"
             id="path162" /><g
             id="g164"
             transform="scale(10,10)"><text
               transform="matrix(1,0,0,-1,279.544,171.656)"
               id="text166"><tspan
                 style="fill:#000000;fill-opacity:1;fill-rule:nonzero;stroke:none;font-family:DejaVu Sans;font-variant:normal;font-weight:normal;font-size:7.5;writing-mode:lr;-inkscape-font-specification:DejaVuSans"
                 x="0 3.7463175 7.493025 9.992664 13.7393715"
                 y="0"
                 sodipodi:role="line"
                 id="tspan168">70-83</tspan></text>
</g><path
             d="m 3019.96,1724.66 132.699,0 0,50 -132.699,0 0,-50 z"
             style="fill:#ff00ff;fill-opacity:1;fill-rule:nonzero;stroke:none"
             id="path170" /><path
             d="m 3019.96,1724.66 135.078,0 0,50 -135.078,0 0,-50 z"
             style="fill:none;stroke:#000000;stroke-opacity:1;stroke-width:5.28985;stroke-linecap:butt;stroke-linejoin:miter;stroke-miterlimit:3.8;stroke-dasharray:none"
             id="path172" /><path
             d="m 946.91,737.594 107.5,0 0,10 -107.5,0 0,-10 z"
             style="fill:#ff00ff;fill-opacity:1;fill-rule:nonzero;stroke:none"
             id="path174" /><path
             d="m 946.91,737.602 106.949,0 0,9.45312 -106.949,0 0,-9.45312 z"
             style="fill:none;stroke:#000000;stroke-opacity:1;stroke-width:7.5;stroke-linecap:butt;stroke-linejoin:miter;stroke-miterlimit:3.8;stroke-dasharray:none"
             id="path176" /><path
             d="m 1540.94,737.602 107.5,0 0,14.4531 -107.5,0 0,-14.4531 z"
             style="fill:#ff00ff;fill-opacity:1;fill-rule:nonzero;stroke:none"
             id="path178" /><path
             d="m 1540.94,737.594 106.988,0 0,13.9492 -106.988,0 0,-13.9492 z"
             style="fill:none;stroke:#000000;stroke-opacity:1;stroke-width:7.5;stroke-linecap:butt;stroke-linejoin:miter;stroke-miterlimit:3.8;stroke-dasharray:none"
             id="path180" /><path
             d="m 2134.92,737.594 107.5,0 0,5 -107.5,0 0,-5 z"
             style="fill:#ff00ff;fill-opacity:1;fill-rule:nonzero;stroke:none"
             id="path182" /><path
             d="m 2134.92,737.602 106.988,0 0,4.45312 -106.988,0 0,-4.45312 z"
             style="fill:none;stroke:#000000;stroke-opacity:1;stroke-width:7.5;stroke-linecap:butt;stroke-linejoin:miter;stroke-miterlimit:3.8;stroke-dasharray:none"
             id="path184" /><path
             d="m 2728.91,737.594 107.031,0 0,10 -107.031,0 0,-10 z"
             style="fill:#ff00ff;fill-opacity:1;fill-rule:nonzero;stroke:none"
             id="path186" /><path
             d="m 2728.91,737.602 106.52,0 0,9.45312 -106.52,0 0,-9.45312 z"
             style="fill:none;stroke:#000000;stroke-opacity:1;stroke-width:7.5;stroke-linecap:butt;stroke-linejoin:miter;stroke-miterlimit:3.8;stroke-dasharray:none"
             id="path188" /><path
             d="m 228.441,737.555 2969.49,0 0,1313.48 -2969.49,0 0,-1313.48 z"
             style="fill:none;stroke:#000000;stroke-opacity:1;stroke-width:15;stroke-linecap:butt;stroke-linejoin:miter;stroke-miterlimit:3.8;stroke-dasharray:none"
             id="path190" /></g></g></g><text
       transform="matrix(0.70710678,-0.70710678,-0.70710678,-0.70710678,0,0)"
       id="text70-0"
       x="46.408993"
       y="-177.27435"
       style="font-size:12.00000381px"><tspan
         style="font-size:10.00000572px;font-variant:normal;font-weight:normal;writing-mode:lr-tb;fill:#000000;fill-opacity:1;fill-rule:nonzero;stroke:none;font-family:DejaVu Sans;-inkscape-font-specification:DejaVuSans"
         sodipodi:role="line"
         id="tspan72-8"
         x="46.408993"
         y="-177.27435" /><tspan
         style="font-size:10.00000572px;font-variant:normal;font-weight:normal;writing-mode:lr-tb;fill:#000000;fill-opacity:1;fill-rule:nonzero;stroke:none;font-family:DejaVu Sans;-inkscape-font-specification:DejaVuSans"
         sodipodi:role="line"
         id="tspan74-5"
         x="46.408993"
         y="-164.77435" /><tspan
         style="font-size:10.00000572px;font-variant:normal;font-weight:normal;writing-mode:lr-tb;fill:#000000;fill-opacity:1;fill-rule:nonzero;stroke:none;font-family:DejaVu Sans;-inkscape-font-specification:DejaVuSans"
         sodipodi:role="line"
         id="tspan76-7"
         x="46.408993"
         y="-152.27434" /><tspan
         style="font-size:10.00000572px;font-variant:normal;font-weight:normal;writing-mode:lr-tb;fill:#000000;fill-opacity:1;fill-rule:nonzero;stroke:none;font-family:DejaVu Sans;-inkscape-font-specification:DejaVuSans"
         sodipodi:role="line"
         id="tspan78-0"
         x="46.408993"
         y="-141.76784"><tspan
           style="font-size:8px"
           id="tspan3167-5">ADCensusB(mask)Ref</tspan></tspan></text>
<text
       transform="matrix(0.70710678,-0.70710678,-0.70710678,-0.70710678,0,0)"
       id="text70-3"
       x="89.240417"
       y="-220.02077"
       style="font-size:12.00000381px"><tspan
         style="font-size:10.00000572px;font-variant:normal;font-weight:normal;writing-mode:lr-tb;fill:#000000;fill-opacity:1;fill-rule:nonzero;stroke:none;font-family:DejaVu Sans;-inkscape-font-specification:DejaVuSans"
         sodipodi:role="line"
         id="tspan72-6"
         x="89.240417"
         y="-220.02077" /><tspan
         style="font-size:10.00000572px;font-variant:normal;font-weight:normal;writing-mode:lr-tb;fill:#000000;fill-opacity:1;fill-rule:nonzero;stroke:none;font-family:DejaVu Sans;-inkscape-font-specification:DejaVuSans"
         sodipodi:role="line"
         id="tspan74-6"
         x="89.240417"
         y="-207.52077" /><tspan
         style="font-size:10.00000572px;font-variant:normal;font-weight:normal;writing-mode:lr-tb;fill:#000000;fill-opacity:1;fill-rule:nonzero;stroke:none;font-family:DejaVu Sans;-inkscape-font-specification:DejaVuSans"
         sodipodi:role="line"
         id="tspan76-2"
         x="89.240417"
         y="-195.02075" /><tspan
         style="font-size:10.00000572px;font-variant:normal;font-weight:normal;writing-mode:lr-tb;fill:#000000;fill-opacity:1;fill-rule:nonzero;stroke:none;font-family:DejaVu Sans;-inkscape-font-specification:DejaVuSans"
         sodipodi:role="line"
         id="tspan78-2"
         x="89.240417"
         y="-184.51425"><tspan
           style="font-size:8px"
           id="tspan3167-54">ADCensusB(full)unRef</tspan></tspan></text>
<text
       transform="matrix(0.70710678,-0.70710678,-0.70710678,-0.70710678,0,0)"
       id="text70-2"
       x="130.56752"
       y="-260.87399"
       style="font-size:12.00000381px"><tspan
         style="font-size:10.00000572px;font-variant:normal;font-weight:normal;writing-mode:lr-tb;fill:#000000;fill-opacity:1;fill-rule:nonzero;stroke:none;font-family:DejaVu Sans;-inkscape-font-specification:DejaVuSans"
         sodipodi:role="line"
         id="tspan72-7"
         x="130.56752"
         y="-260.87399" /><tspan
         style="font-size:10.00000572px;font-variant:normal;font-weight:normal;writing-mode:lr-tb;fill:#000000;fill-opacity:1;fill-rule:nonzero;stroke:none;font-family:DejaVu Sans;-inkscape-font-specification:DejaVuSans"
         sodipodi:role="line"
         id="tspan74-2"
         x="130.56752"
         y="-248.37399" /><tspan
         style="font-size:10.00000572px;font-variant:normal;font-weight:normal;writing-mode:lr-tb;fill:#000000;fill-opacity:1;fill-rule:nonzero;stroke:none;font-family:DejaVu Sans;-inkscape-font-specification:DejaVuSans"
         sodipodi:role="line"
         id="tspan76-70"
         x="130.56752"
         y="-235.87398" /><tspan
         style="font-size:10.00000572px;font-variant:normal;font-weight:normal;writing-mode:lr-tb;fill:#000000;fill-opacity:1;fill-rule:nonzero;stroke:none;font-family:DejaVu Sans;-inkscape-font-specification:DejaVuSans"
         sodipodi:role="line"
         id="tspan78-1"
         x="130.56752"
         y="-225.36748"><tspan
           style="font-size:8px"
           id="tspan3167-544">ADCensusB(full)Ref</tspan></tspan></text>
</g></svg>