<?xml version="1.0" encoding="UTF-8" standalone="no"?>
<!-- Created with Inkscape (http://www.inkscape.org/) -->

<svg
   xmlns:dc="http://purl.org/dc/elements/1.1/"
   xmlns:cc="http://creativecommons.org/ns#"
   xmlns:rdf="http://www.w3.org/1999/02/22-rdf-syntax-ns#"
   xmlns:svg="http://www.w3.org/2000/svg"
   xmlns="http://www.w3.org/2000/svg"
   xmlns:sodipodi="http://sodipodi.sourceforge.net/DTD/sodipodi-0.dtd"
   xmlns:inkscape="http://www.inkscape.org/namespaces/inkscape"
   id="svg2"
   version="1.1"
   inkscape:version="0.48.3.1 r9886"
   width="281.25"
   height="222.5"
   xml:space="preserve"
   sodipodi:docname="binocular.svg"><metadata
     id="metadata8"><rdf:RDF><cc:Work
         rdf:about=""><dc:format>image/svg+xml</dc:format><dc:type
           rdf:resource="http://purl.org/dc/dcmitype/StillImage" /><dc:title /></cc:Work></rdf:RDF></metadata><defs
     id="defs6"><clipPath
       clipPathUnits="userSpaceOnUse"
       id="clipPath18"><path
         d="m 0,1779.13 2250,0 0,-1770.00109 -2250,0 L 0,1779.13 z"
         id="path20" /></clipPath></defs><sodipodi:namedview
     pagecolor="#ffffff"
     bordercolor="#666666"
     borderopacity="1"
     objecttolerance="10"
     gridtolerance="10"
     guidetolerance="10"
     inkscape:pageopacity="0"
     inkscape:pageshadow="2"
     inkscape:window-width="1535"
     inkscape:window-height="876"
     id="namedview4"
     showgrid="false"
     inkscape:zoom="1.6723936"
     inkscape:cx="233.32001"
     inkscape:cy="78.962629"
     inkscape:window-x="65"
     inkscape:window-y="24"
     inkscape:window-maximized="1"
     inkscape:current-layer="g12" /><g
     id="g10"
     inkscape:groupmode="layer"
     inkscape:label="ink_ext_XXXXXX"
     transform="matrix(1.25,0,0,-1.25,0,222.5)"><g
       id="g12"
       transform="scale(0.1,0.1)"><g
         id="g14"><g
           id="g16"
           clip-path="url(#clipPath18)"><path
             d="m 737.031,184.289 c 0,-93.9492 -76.172,-170.0781 -170.082,-170.0781 -93.937,0 -170.07,76.1289 -170.07,170.0781 0,93.902 76.133,170.082 170.07,170.082 93.91,0 170.082,-76.18 170.082,-170.082 z"
             style="fill:#ac9393;fill-opacity:1;fill-rule:nonzero;stroke:none"
             id="path22" /><path
             d="m 737.031,184.289 c 0,-93.9492 -76.172,-170.0781 -170.082,-170.0781 -93.937,0 -170.07,76.1289 -170.07,170.0781 0,93.902 76.133,170.07 170.07,170.07 93.91,0 170.082,-76.168 170.082,-170.07 z"
             style="fill:none;stroke:#445500;stroke-opacity:1;stroke-width:8.26236;stroke-linecap:round;stroke-linejoin:bevel;stroke-miterlimit:4;stroke-dasharray:33.0495,33.0495;stroke-dashoffset:0"
             id="path24" /><path
             d="m 1814.18,184.289 c 0,-93.9492 -76.13,-170.0781 -170.08,-170.0781 -93.94,0 -170.08,76.1289 -170.08,170.0781 0,93.902 76.14,170.082 170.08,170.082 93.95,0 170.08,-76.18 170.08,-170.082 z"
             style="fill:#ac9393;fill-opacity:1;fill-rule:nonzero;stroke:none"
             id="path26" /><path
             d="m 1814.18,184.289 c 0,-93.9492 -76.13,-170.0781 -170.08,-170.0781 -93.94,0 -170.08,76.1289 -170.08,170.0781 0,93.902 76.14,170.07 170.08,170.07 93.95,0 170.08,-76.168 170.08,-170.07 z"
             style="fill:none;stroke:#445500;stroke-opacity:1;stroke-width:8.26236;stroke-linecap:round;stroke-linejoin:bevel;stroke-miterlimit:4;stroke-dasharray:33.0495,33.0495;stroke-dashoffset:0"
             id="path28" /><path
             d="M 453.551,70.8906 1133.87,1658.27 1716.8,38.9023"
             style="fill:none;stroke:#000000;stroke-opacity:1;stroke-width:8;stroke-linecap:butt;stroke-linejoin:miter;stroke-miterlimit:4;stroke-dasharray:none"
             id="path30" /><path
             d="m 534.922,240.973 1125.198,0"
             style="fill:none;stroke:#000000;stroke-opacity:1;stroke-width:8;stroke-linecap:butt;stroke-linejoin:miter;stroke-miterlimit:4;stroke-dasharray:none"
             id="path32" /><path
             d="M 421.559,95.582 1133.87,1091.36 1757.5,70.8906"
             style="fill:none;stroke:#000000;stroke-opacity:1;stroke-width:8;stroke-linecap:butt;stroke-linejoin:miter;stroke-miterlimit:4;stroke-dasharray:none"
             id="path34" /><path
             d="m 1133.87,1658.27 0,-1417.297"
             style="fill:none;stroke:#000000;stroke-opacity:1;stroke-width:7.9937;stroke-linecap:butt;stroke-linejoin:miter;stroke-miterlimit:4;stroke-dasharray:31.9748,31.9748;stroke-dashoffset:0"
             id="path36" /><g
             id="g38"
             transform="scale(10,10)"><text
   transform="matrix(1,0,0,-1,110.688,12.7578)"
   id="text40"><tspan
     style="fill:#000000;fill-opacity:1;fill-rule:nonzero;stroke:none;font-family:DejaVu Sans;font-variant:normal;font-weight:normal;font-size:8.8;writing-mode:lr;-inkscape-font-specification:DejaVuSans"
     x="0"
     y="0"
     id="tspan42">a</tspan></text>

</g><path
             d="m 2097.66,1658.27 0,-1417.297"
             style="fill:none;stroke:#000000;stroke-opacity:1;stroke-width:8;stroke-linecap:butt;stroke-linejoin:miter;stroke-miterlimit:4;stroke-dasharray:32,32;stroke-dashoffset:0"
             id="path44" /><path
             d="m 2097.66,1578.27 31.99,-31.99 -31.99,111.99 -32,-111.99 32,31.99 z"
             style="fill:#000000;fill-opacity:1;fill-rule:evenodd;stroke:none"
             id="path46" /><path
             d="m 2097.66,1578.27 31.99,-31.99 -31.99,111.99 -32,-111.99 32,31.99 z"
             style="fill:none;stroke:#000000;stroke-opacity:1;stroke-width:8;stroke-linecap:butt;stroke-linejoin:miter;stroke-miterlimit:4;stroke-dasharray:none"
             id="path48" /><path
             d="m 2097.66,320.969 -32,31.992 32,-111.992 31.99,111.992 -31.99,-31.992 z"
             style="fill:#000000;fill-opacity:1;fill-rule:evenodd;stroke:none"
             id="path50" /><path
             d="m 2097.66,320.973 -32,31.988 32,-111.988 31.99,111.988 -31.99,-31.988 z"
             style="fill:none;stroke:#000000;stroke-opacity:1;stroke-width:8;stroke-linecap:butt;stroke-linejoin:miter;stroke-miterlimit:4;stroke-dasharray:none"
             id="path52" /><path
             d="m 1927.58,1091.36 0,-850.387"
             style="fill:none;stroke:#000000;stroke-opacity:1;stroke-width:8;stroke-linecap:butt;stroke-linejoin:miter;stroke-miterlimit:4;stroke-dasharray:32,32;stroke-dashoffset:0"
             id="path54" /><path
             d="m 1927.58,1011.36 31.99,-31.989 -31.99,111.989 -31.99,-111.989 31.99,31.989 z"
             style="fill:#000000;fill-opacity:1;fill-rule:evenodd;stroke:none"
             id="path56" /><path
             d="m 1927.58,1011.36 31.99,-32.001 -31.99,112.001 -31.99,-112.001 31.99,32.001 z"
             style="fill:none;stroke:#000000;stroke-opacity:1;stroke-width:8;stroke-linecap:butt;stroke-linejoin:miter;stroke-miterlimit:4;stroke-dasharray:none"
             id="path58" /><path
             d="m 1927.58,320.969 -31.99,31.992 31.99,-111.992 31.99,111.992 -31.99,-31.992 z"
             style="fill:#000000;fill-opacity:1;fill-rule:evenodd;stroke:none"
             id="path60" /><path
             d="m 1927.58,320.973 -31.99,31.988 31.99,-111.988 31.99,111.988 -31.99,-31.988 z"
             style="fill:none;stroke:#000000;stroke-opacity:1;stroke-width:8;stroke-linecap:butt;stroke-linejoin:miter;stroke-miterlimit:4;stroke-dasharray:none"
             id="path62" /><g
             id="g64"
             transform="scale(10,10)"><text
   transform="matrix(1,0,0,-1,181.646,63.5328)"
   id="text66"><tspan
     style="fill:#000000;fill-opacity:1;fill-rule:nonzero;stroke:none;font-family:DejaVu Sans;font-variant:normal;font-weight:normal;font-size:8.8;writing-mode:lr;-inkscape-font-specification:DejaVuSans"
     x="0"
     y="0"
     id="tspan68">Z</tspan><tspan
     style="fill:#000000;fill-opacity:1;fill-rule:nonzero;stroke:none;font-family:DejaVu Sans;font-variant:normal;font-weight:normal;font-size:8.8;writing-mode:lr;-inkscape-font-specification:DejaVuSans"
     x="35.4438 41.4718"
     y="-5.91797"
     sodipodi:role="line"
     id="tspan70">Z′</tspan></text>

</g><path
             d="m 1153.87,1091.36 c 0,-11.06 -8.95,-20 -20,-20 -11.06,0 -20,8.94 -20,20 0,11.05 8.94,20 20,20 11.05,0 20,-8.95 20,-20 z"
             style="fill:#000000;fill-opacity:1;fill-rule:nonzero;stroke:none"
             id="path72" /><path
             d="m 1153.87,1658.27 c 0,-11.01 -8.95,-20 -20,-20 -11.06,0 -20,8.99 -20,20 0,11.06 8.94,20 20,20 11.05,0 20,-8.94 20,-20 z"
             style="fill:#000000;fill-opacity:1;fill-rule:nonzero;stroke:none"
             id="path74" /><g
             id="g76"
             transform="scale(10,10)"><text
   transform="matrix(1,0,0,-1,110.852,171.498)"
   id="text78"><tspan
     style="font-size:8.80000019px;font-variant:normal;font-weight:normal;writing-mode:lr-tb;fill:#000000;fill-opacity:1;fill-rule:nonzero;stroke:none;font-family:DejaVu Sans;-inkscape-font-specification:DejaVuSans"
     x="0"
     y="0"
     id="tspan80" /><tspan
     style="font-size:8.80000019px;font-variant:normal;font-weight:normal;writing-mode:lr-tb;fill:#000000;fill-opacity:1;fill-rule:nonzero;stroke:none;font-family:DejaVu Sans;-inkscape-font-specification:DejaVuSans"
     x="0"
     y="11"
     sodipodi:role="line"
     id="tspan82">F</tspan></text>

</g><path
             d="M 2211.02,1658.27 0,1658.27"
             style="fill:none;stroke:#000000;stroke-opacity:1;stroke-width:8;stroke-linecap:butt;stroke-linejoin:miter;stroke-miterlimit:4;stroke-dasharray:8,16;stroke-dashoffset:0"
             id="path84" /><path
             d="m 1984.26,1091.36 -1700.78,0"
             style="fill:none;stroke:#000000;stroke-opacity:1;stroke-width:8;stroke-linecap:butt;stroke-linejoin:miter;stroke-miterlimit:4;stroke-dasharray:8,16;stroke-dashoffset:0"
             id="path86" /><path
             d="m 1060.35,1479.64 c 2.38,-13.75 8.79,-26.8 18.28,-37.03 9.46,-10.24 21.96,-17.66 35.47,-21.1 13.52,-3.4 28.05,-2.85 41.25,1.64 13.2,4.5 25.04,12.89 33.67,23.87 9.03,11.41 14.46,25.63 15.43,40.16"
             style="fill:none;stroke:#000000;stroke-opacity:1;stroke-width:5.31451;stroke-linecap:butt;stroke-linejoin:miter;stroke-miterlimit:4;stroke-dasharray:none"
             id="path88" /><path
             d="m 1054.88,977.723 c 2.39,-13.75 8.79,-26.75 18.28,-36.993 9.46,-10.23 21.96,-17.648 35.47,-21.089 13.52,-3.442 28.01,-2.852 41.25,1.64 13.21,4.489 25.04,12.891 33.67,23.828 9.03,11.442 14.46,25.661 15.43,40.192"
             style="fill:none;stroke:#000000;stroke-opacity:1;stroke-width:5.31451;stroke-linecap:butt;stroke-linejoin:miter;stroke-miterlimit:4;stroke-dasharray:none"
             id="path90" /><g
             id="g92"
             transform="scale(10,10)"><text
   transform="matrix(1,0,0,-1,105.558,135.858)"
   id="text94"><tspan
     style="fill:#000000;fill-opacity:1;fill-rule:nonzero;stroke:none;font-family:DejaVu Sans;font-variant:normal;font-weight:normal;font-size:8.8;writing-mode:lr;-inkscape-font-specification:DejaVuSans"
     x="0"
     y="0"
     id="tspan96">α</tspan><tspan
     style="fill:#000000;fill-opacity:1;fill-rule:nonzero;stroke:none;font-family:DejaVu Sans;font-variant:normal;font-weight:normal;font-size:8.8;writing-mode:lr;-inkscape-font-specification:DejaVuSans"
     x="-0.650781"
     y="50.9992"
     id="tspan98">β</tspan></text>

</g><path
             d="m 1927.58,1658.27 0,-549.61"
             style="fill:none;stroke:#000000;stroke-opacity:1;stroke-width:6.43148;stroke-linecap:butt;stroke-linejoin:miter;stroke-miterlimit:4;stroke-dasharray:25.7259,25.7259;stroke-dashoffset:0"
             id="path100" /><path
             d="m 1927.58,1593.97 25.7,-25.74 -25.7,90.04 -25.74,-90.04 25.74,25.74 z"
             style="fill:#000000;fill-opacity:1;fill-rule:evenodd;stroke:none"
             id="path102" /><path
             d="m 1927.58,1593.97 25.7,-25.74 -25.7,90.04 -25.74,-90.04 25.74,25.74 z"
             style="fill:none;stroke:#000000;stroke-opacity:1;stroke-width:6.43148;stroke-linecap:butt;stroke-linejoin:miter;stroke-miterlimit:4;stroke-dasharray:none"
             id="path104" /><path
             d="m 1927.58,1173 -25.74,25.7 25.74,-90.04 25.7,90.04 -25.7,-25.7 z"
             style="fill:#000000;fill-opacity:1;fill-rule:evenodd;stroke:none"
             id="path106" /><path
             d="m 1927.58,1173 -25.74,25.7 25.74,-90.04 25.7,90.04 -25.7,-25.7 z"
             style="fill:none;stroke:#000000;stroke-opacity:1;stroke-width:6.43148;stroke-linecap:butt;stroke-linejoin:miter;stroke-miterlimit:4;stroke-dasharray:none"
             id="path108" /><g
             id="g110"
             transform="scale(10,10)"><text
   transform="matrix(1,0,0,-1,176.343,131.813)"
   id="text112"><tspan
     style="fill:#000000;fill-opacity:1;fill-rule:nonzero;stroke:none;font-family:DejaVu Sans;font-variant:normal;font-weight:normal;font-size:8.8;writing-mode:lr;-inkscape-font-specification:DejaVuSans"
     x="0 6.01490313"
     y="0"
     sodipodi:role="line"
     id="tspan114">ΔZ</tspan></text>

</g></g></g><flowRoot
         xml:space="preserve"
         id="flowRoot3091"
         style="font-size:11px;font-style:normal;font-variant:normal;font-weight:normal;font-stretch:normal;text-align:center;line-height:125%;letter-spacing:0px;word-spacing:0px;writing-mode:lr-tb;text-anchor:middle;fill:#000000;fill-opacity:1;stroke:none;font-family:Sans;-inkscape-font-specification:Sans"
         transform="matrix(8,0,0,-8,48,1780)"><flowRegion
           id="flowRegion3093"><rect
             id="rect3095"
             width="14.613347"
             height="13.670551"
             x="122.56356"
             y="70.709747" /></flowRegion><flowPara
           id="flowPara3097">F</flowPara></flowRoot><flowRoot
         xml:space="preserve"
         id="flowRoot3099"
         style="font-size:11px;font-style:normal;font-variant:normal;font-weight:normal;font-stretch:normal;text-align:center;line-height:125%;letter-spacing:0px;word-spacing:0px;writing-mode:lr-tb;text-anchor:middle;fill:#000000;fill-opacity:1;stroke:none;font-family:Sans;-inkscape-font-specification:Sans"
         transform="matrix(8,0,0,-8,0,1796)"><flowRegion
           id="flowRegion3101"><rect
             id="rect3103"
             width="16.970339"
             height="15.556144"
             x="133.40572"
             y="2.3569913" /></flowRegion><flowPara
           id="flowPara3105">F′</flowPara></flowRoot><path
         style="fill:none;stroke:#000000;stroke-width:4.03861284px;stroke-linecap:butt;stroke-linejoin:miter;stroke-opacity:1"
         d="m 1487.2608,507.11683 c 0,0 -35.2549,105.47951 46.388,46.87976"
         id="path3046"
         inkscape:connector-curvature="0" /><text
         xml:space="preserve"
         style="font-size:320px;font-style:normal;font-weight:normal;line-height:125%;letter-spacing:0px;word-spacing:0px;fill:#000000;fill-opacity:1;stroke:none;font-family:Sans"
         x="1433.074"
         y="-613.45227"
         id="text3052"
         sodipodi:linespacing="125%"
         transform="scale(1,-1)"><tspan
           sodipodi:role="line"
           id="tspan3054"
           x="1433.074"
           y="-613.45227"
           style="font-size:88px">ϕ</tspan></text>
</g></g></svg>