<?xml version="1.0" encoding="UTF-8" standalone="no"?>
<!-- Created with Inkscape (http://www.inkscape.org/) -->

<svg
   xmlns:dc="http://purl.org/dc/elements/1.1/"
   xmlns:cc="http://creativecommons.org/ns#"
   xmlns:rdf="http://www.w3.org/1999/02/22-rdf-syntax-ns#"
   xmlns:svg="http://www.w3.org/2000/svg"
   xmlns="http://www.w3.org/2000/svg"
   xmlns:sodipodi="http://sodipodi.sourceforge.net/DTD/sodipodi-0.dtd"
   xmlns:inkscape="http://www.inkscape.org/namespaces/inkscape"
   id="svg2"
   version="1.1"
   inkscape:version="0.48.3.1 r9886"
   width="408.75"
   height="291.25"
   xml:space="preserve"
   sodipodi:docname="errchart.eps"><metadata
     id="metadata8"><rdf:RDF><cc:Work
         rdf:about=""><dc:format>image/svg+xml</dc:format><dc:type
           rdf:resource="http://purl.org/dc/dcmitype/StillImage" /><dc:title></dc:title></cc:Work></rdf:RDF></metadata><defs
     id="defs6"><clipPath
       clipPathUnits="userSpaceOnUse"
       id="clipPath18"><path
         d="m 0,2324.98 3270,0 0,-2319.99953 -3270,0 L 0,2324.98 z"
         id="path20" /></clipPath></defs><sodipodi:namedview
     pagecolor="#ffffff"
     bordercolor="#666666"
     borderopacity="1"
     objecttolerance="10"
     gridtolerance="10"
     guidetolerance="10"
     inkscape:pageopacity="0"
     inkscape:pageshadow="2"
     inkscape:window-width="1855"
     inkscape:window-height="1056"
     id="namedview4"
     showgrid="false"
     inkscape:zoom="1.6206009"
     inkscape:cx="189.34457"
     inkscape:cy="242.92688"
     inkscape:window-x="65"
     inkscape:window-y="24"
     inkscape:window-maximized="1"
     inkscape:current-layer="g10" /><g
     id="g10"
     inkscape:groupmode="layer"
     inkscape:label="ink_ext_XXXXXX"
     transform="matrix(1.25,0,0,-1.25,0,291.25)"><g
       id="g12"
       transform="scale(0.1,0.1)"><g
         id="g14"><g
           id="g16"
           clip-path="url(#clipPath18)"><path
             d="m 108.789,647.441 31.52,0 m 3117.971,0 -31.48,0"
             style="fill:none;stroke:#000000;stroke-opacity:1;stroke-width:15;stroke-linecap:butt;stroke-linejoin:miter;stroke-miterlimit:3.8;stroke-dasharray:none"
             id="path22" /><g
             id="g24"
             transform="scale(10,10)"><text
               transform="matrix(1,0,0,-1,-0.119922,61.4105)"
               id="text26"><tspan
                 style="fill:#000000;fill-opacity:1;fill-rule:nonzero;stroke:none;font-family:f-0;font-variant:normal;font-size:10;writing-mode:lr;-inkscape-font-specification:f-0-0"
                 x="0"
                 y="0"
                 id="tspan28">0</tspan></text>
</g><path
             d="m 108.789,832.953 31.52,0 m 3117.971,0 -31.48,0"
             style="fill:none;stroke:#000000;stroke-opacity:1;stroke-width:15;stroke-linecap:butt;stroke-linejoin:miter;stroke-miterlimit:3.8;stroke-dasharray:none"
             id="path30" /><g
             id="g32"
             transform="scale(10,10)"><text
               transform="matrix(1,0,0,-1,-0.119922,79.9605)"
               id="text34"><tspan
                 style="fill:#000000;fill-opacity:1;fill-rule:nonzero;stroke:none;font-family:f-0;font-variant:normal;font-size:10;writing-mode:lr;-inkscape-font-specification:f-0-0"
                 x="0"
                 y="0"
                 id="tspan36">1</tspan></text>
</g><path
             d="m 108.789,1018.46 31.52,0 m 3117.971,0 -31.48,0"
             style="fill:none;stroke:#000000;stroke-opacity:1;stroke-width:15;stroke-linecap:butt;stroke-linejoin:miter;stroke-miterlimit:3.8;stroke-dasharray:none"
             id="path38" /><g
             id="g40"
             transform="scale(10,10)"><text
               transform="matrix(1,0,0,-1,-0.119922,98.5109)"
               id="text42"><tspan
                 style="fill:#000000;fill-opacity:1;fill-rule:nonzero;stroke:none;font-family:f-0;font-variant:normal;font-size:10;writing-mode:lr;-inkscape-font-specification:f-0-0"
                 x="0"
                 y="0"
                 id="tspan44">2</tspan></text>
</g><path
             d="m 108.789,1203.96 31.52,0 m 3117.971,0 -31.48,0"
             style="fill:none;stroke:#000000;stroke-opacity:1;stroke-width:15;stroke-linecap:butt;stroke-linejoin:miter;stroke-miterlimit:3.8;stroke-dasharray:none"
             id="path46" /><g
             id="g48"
             transform="scale(10,10)"><text
               transform="matrix(1,0,0,-1,-0.119922,117.061)"
               id="text50"><tspan
                 style="fill:#000000;fill-opacity:1;fill-rule:nonzero;stroke:none;font-family:f-0;font-variant:normal;font-size:10;writing-mode:lr;-inkscape-font-specification:f-0-0"
                 x="0"
                 y="0"
                 id="tspan52">3</tspan></text>
</g><path
             d="m 108.789,1389.47 31.52,0 m 3117.971,0 -31.48,0"
             style="fill:none;stroke:#000000;stroke-opacity:1;stroke-width:15;stroke-linecap:butt;stroke-linejoin:miter;stroke-miterlimit:3.8;stroke-dasharray:none"
             id="path54" /><g
             id="g56"
             transform="scale(10,10)"><text
               transform="matrix(1,0,0,-1,-0.119922,135.611)"
               id="text58"><tspan
                 style="fill:#000000;fill-opacity:1;fill-rule:nonzero;stroke:none;font-family:f-0;font-variant:normal;font-size:10;writing-mode:lr;-inkscape-font-specification:f-0-0"
                 x="0"
                 y="0"
                 id="tspan60">4</tspan></text>
</g><path
             d="m 108.789,1574.47 31.52,0 m 3117.971,0 -31.48,0"
             style="fill:none;stroke:#000000;stroke-opacity:1;stroke-width:15;stroke-linecap:butt;stroke-linejoin:miter;stroke-miterlimit:3.8;stroke-dasharray:none"
             id="path62" /><g
             id="g64"
             transform="scale(10,10)"><text
               transform="matrix(1,0,0,-1,-0.119922,154.111)"
               id="text66"><tspan
                 style="fill:#000000;fill-opacity:1;fill-rule:nonzero;stroke:none;font-family:f-0;font-variant:normal;font-size:10;writing-mode:lr;-inkscape-font-specification:f-0-0"
                 x="0"
                 y="0"
                 id="tspan68">5</tspan></text>
</g><path
             d="m 108.789,1759.94 31.52,0 m 3117.971,0 -31.48,0"
             style="fill:none;stroke:#000000;stroke-opacity:1;stroke-width:15;stroke-linecap:butt;stroke-linejoin:miter;stroke-miterlimit:3.8;stroke-dasharray:none"
             id="path70" /><g
             id="g72"
             transform="scale(10,10)"><text
               transform="matrix(1,0,0,-1,-0.119922,172.661)"
               id="text74"><tspan
                 style="fill:#000000;fill-opacity:1;fill-rule:nonzero;stroke:none;font-family:f-0;font-variant:normal;font-size:10;writing-mode:lr;-inkscape-font-specification:f-0-0"
                 x="0"
                 y="0"
                 id="tspan76">6</tspan></text>
</g><path
             d="m 108.789,1945.45 31.52,0 m 3117.971,0 -31.48,0"
             style="fill:none;stroke:#000000;stroke-opacity:1;stroke-width:15;stroke-linecap:butt;stroke-linejoin:miter;stroke-miterlimit:3.8;stroke-dasharray:none"
             id="path78" /><g
             id="g80"
             transform="scale(10,10)"><text
               transform="matrix(1,0,0,-1,-0.119922,191.211)"
               id="text82"><tspan
                 style="fill:#000000;fill-opacity:1;fill-rule:nonzero;stroke:none;font-family:f-0;font-variant:normal;font-size:10;writing-mode:lr;-inkscape-font-specification:f-0-0"
                 x="0"
                 y="0"
                 id="tspan84">7</tspan></text>
</g><path
             d="m 108.789,2130.96 31.52,0 m 3117.971,0 -31.48,0"
             style="fill:none;stroke:#000000;stroke-opacity:1;stroke-width:15;stroke-linecap:butt;stroke-linejoin:miter;stroke-miterlimit:3.8;stroke-dasharray:none"
             id="path86" /><g
             id="g88"
             transform="scale(10,10)"><text
               transform="matrix(1,0,0,-1,-0.119922,209.761)"
               id="text90"><tspan
                 style="fill:#000000;fill-opacity:1;fill-rule:nonzero;stroke:none;font-family:f-0;font-variant:normal;font-size:10;writing-mode:lr;-inkscape-font-specification:f-0-0"
                 x="0"
                 y="0"
                 id="tspan92">8</tspan></text>
<text
               transform="matrix(0.707107,-0.707107,-0.707107,-0.707107,71.5219,56.3879)"
               id="text94"><tspan
                 style="fill:#000000;fill-opacity:1;fill-rule:nonzero;stroke:none;font-family:f-0;font-variant:normal;font-size:10.00000309;writing-mode:lr;-inkscape-font-specification:f-0-0"
                 x="0 5.56000172 12.78000395 19.45000602 28.34000877 31.6700098 40.56001255 45.00001393 48.89001513 53.89001668 58.33001805"
                 y="0"
                 sodipodi:role="line"
                 id="tspan96">SGBM-Masked</tspan><tspan
                 style="fill:#000000;fill-opacity:1;fill-rule:nonzero;stroke:none;font-family:f-0;font-variant:normal;font-size:10.00000309;writing-mode:lr;-inkscape-font-specification:f-0-0"
                 x="44.54771379 50.10771551 57.32771774 63.9977198 72.88772256 76.21772359 81.77772531 86.77772685 89.55772771"
                 y="-44.547714"
                 sodipodi:role="line"
                 id="tspan98">SGBM-Full</tspan><tspan
                 style="fill:#000000;fill-opacity:1;fill-rule:nonzero;stroke:none;font-family:f-0;font-variant:normal;font-size:10.00000309;writing-mode:lr;-inkscape-font-specification:f-0-0"
                 x="89.06012756 96.28012979 103.50013203 110.17013409 114.61013547 119.61013701 123.50013822 128.50013976 132.39014097 135.720142 144.61014475 149.05014612 152.94014733 157.94014887 162.38015025"
                 y="-89.060128"
                 sodipodi:role="line"
                 id="tspan100">ADCensus-Masked</tspan><tspan
                 style="fill:#000000;fill-opacity:1;fill-rule:nonzero;stroke:none;font-family:f-0;font-variant:normal;font-size:10.00000309;writing-mode:lr;-inkscape-font-specification:f-0-0"
                 x="133.60784134 140.82784358 148.04784581 154.71784788 159.15784925 164.1578508 168.047852 173.04785355 176.93785475 180.26785578 185.8278575 190.82785905 193.60785991"
                 y="-133.60784"
                 sodipodi:role="line"
                 id="tspan102">ADCensus-Full</tspan></text>
</g><path
             d="m 108.789,647.441 3149.49,0 0,1483.52 -3149.49,0 0,-1483.52 z"
             style="fill:none;stroke:#000000;stroke-opacity:1;stroke-width:15;stroke-linecap:butt;stroke-linejoin:miter;stroke-miterlimit:3.8;stroke-dasharray:none"
             id="path104" /><g
             id="g106"
             transform="scale(10,10)"><text
               transform="scale(1,-1)"
               id="text108"
               x="92.517166"
               y="-219.957"><tspan
                 style="font-size:11.19999981px;font-variant:normal;font-weight:bold;writing-mode:lr-tb;fill:#000000;fill-opacity:1;fill-rule:nonzero;stroke:none;font-family:DejaVu Sans;-inkscape-font-specification:DejaVuSans-Bold"
                 sodipodi:role="line"
                 id="tspan110"
                 x="92.517166"
                 y="-219.957">Average Disparity Error</tspan></text>
</g><path
             d="m 596.801,647.449 283.98,0 0,1449.02 -283.98,0 0,-1449.02 z"
             style="fill:#ff0000;fill-opacity:1;fill-rule:nonzero;stroke:none"
             id="path112" /><path
             d="m 596.801,647.441 283.52,0 0,1448.52 -283.52,0 0,-1448.52 z"
             style="fill:none;stroke:#000000;stroke-opacity:1;stroke-width:7.5;stroke-linecap:butt;stroke-linejoin:miter;stroke-miterlimit:3.8;stroke-dasharray:none"
             id="path114" /><path
             d="m 1226.8,647.441 283.98,0 0,1220.51 -283.98,0 0,-1220.51 z"
             style="fill:#ff0000;fill-opacity:1;fill-rule:nonzero;stroke:none"
             id="path116" /><path
             d="m 1226.8,647.441 283.52,0 0,1220 -283.52,0 0,-1220 z"
             style="fill:none;stroke:#000000;stroke-opacity:1;stroke-width:7.5;stroke-linecap:butt;stroke-linejoin:miter;stroke-miterlimit:3.8;stroke-dasharray:none"
             id="path118" /><path
             d="m 1856.8,647.441 283.98,0 0,879.527 -283.98,0 0,-879.527 z"
             style="fill:#ff0000;fill-opacity:1;fill-rule:nonzero;stroke:none"
             id="path120" /><path
             d="m 1856.8,647.441 283.52,0 0,879.02 -283.52,0 0,-879.02 z"
             style="fill:none;stroke:#000000;stroke-opacity:1;stroke-width:7.5;stroke-linecap:butt;stroke-linejoin:miter;stroke-miterlimit:3.8;stroke-dasharray:none"
             id="path122" /><path
             d="m 2486.8,647.441 283.98,0 0,833.008 -283.98,0 0,-833.008 z"
             style="fill:#ff0000;fill-opacity:1;fill-rule:nonzero;stroke:none"
             id="path124" /><path
             d="m 2486.8,647.441 283.52,0 0,832.5 -283.52,0 0,-832.5 z"
             style="fill:none;stroke:#000000;stroke-opacity:1;stroke-width:7.5;stroke-linecap:butt;stroke-linejoin:miter;stroke-miterlimit:3.8;stroke-dasharray:none"
             id="path126" /><path
             d="m 108.789,647.441 3149.49,0 0,1483.52 -3149.49,0 0,-1483.52 z"
             style="fill:none;stroke:#000000;stroke-opacity:1;stroke-width:15;stroke-linecap:butt;stroke-linejoin:miter;stroke-miterlimit:3.8;stroke-dasharray:none"
             id="path128" /></g></g></g></g></svg>