<?xml version="1.0" encoding="UTF-8" standalone="no"?>
<!-- Created with Inkscape (http://www.inkscape.org/) -->

<svg
   xmlns:dc="http://purl.org/dc/elements/1.1/"
   xmlns:cc="http://creativecommons.org/ns#"
   xmlns:rdf="http://www.w3.org/1999/02/22-rdf-syntax-ns#"
   xmlns:svg="http://www.w3.org/2000/svg"
   xmlns="http://www.w3.org/2000/svg"
   xmlns:sodipodi="http://sodipodi.sourceforge.net/DTD/sodipodi-0.dtd"
   xmlns:inkscape="http://www.inkscape.org/namespaces/inkscape"
   id="svg2"
   version="1.1"
   inkscape:version="0.48.3.1 r9886"
   width="401.25"
   height="292.5"
   xml:space="preserve"
   sodipodi:docname="outlchart.eps"><metadata
     id="metadata8"><rdf:RDF><cc:Work
         rdf:about=""><dc:format>image/svg+xml</dc:format><dc:type
           rdf:resource="http://purl.org/dc/dcmitype/StillImage" /><dc:title></dc:title></cc:Work></rdf:RDF></metadata><defs
     id="defs6"><clipPath
       clipPathUnits="userSpaceOnUse"
       id="clipPath18"><path
         d="m 0,2330.32 3210,0 0,-2329.999688 -3210,0 L 0,2330.32 z"
         id="path20" /></clipPath></defs><sodipodi:namedview
     pagecolor="#ffffff"
     bordercolor="#666666"
     borderopacity="1"
     objecttolerance="10"
     gridtolerance="10"
     guidetolerance="10"
     inkscape:pageopacity="0"
     inkscape:pageshadow="2"
     inkscape:window-width="1855"
     inkscape:window-height="1056"
     id="namedview4"
     showgrid="false"
     inkscape:zoom="1.6136752"
     inkscape:cx="180.91302"
     inkscape:cy="192.48564"
     inkscape:window-x="65"
     inkscape:window-y="24"
     inkscape:window-maximized="1"
     inkscape:current-layer="g10" /><g
     id="g10"
     inkscape:groupmode="layer"
     inkscape:label="ink_ext_XXXXXX"
     transform="matrix(1.25,0,0,-1.25,0,292.5)"><g
       id="g12"
       transform="scale(0.1,0.1)"><g
         id="g14"><g
           id="g16"
           clip-path="url(#clipPath18)"><path
             d="m 232.621,647.469 31.481,0 m 2938.008,0 -31.52,0"
             style="fill:none;stroke:#000000;stroke-opacity:1;stroke-width:15;stroke-linecap:butt;stroke-linejoin:miter;stroke-miterlimit:3.8;stroke-dasharray:none"
             id="path22" /><g
             id="g24"
             transform="scale(10,10)"><text
               transform="matrix(1,0,0,-1,12.2602,61.4105)"
               id="text26"><tspan
                 style="fill:#000000;fill-opacity:1;fill-rule:nonzero;stroke:none;font-family:f-0;font-variant:normal;font-size:10;writing-mode:lr;-inkscape-font-specification:f-0-0"
                 x="0"
                 y="0"
                 id="tspan28">0</tspan></text>
</g><path
             d="m 232.621,912.469 31.481,0 m 2938.008,0 -31.52,0"
             style="fill:none;stroke:#000000;stroke-opacity:1;stroke-width:15;stroke-linecap:butt;stroke-linejoin:miter;stroke-miterlimit:3.8;stroke-dasharray:none"
             id="path30" /><g
             id="g32"
             transform="scale(10,10)"><text
               transform="matrix(1,0,0,-1,-0.239844,87.9105)"
               id="text34"><tspan
                 style="fill:#000000;fill-opacity:1;fill-rule:nonzero;stroke:none;font-family:f-0;font-variant:normal;font-size:10;writing-mode:lr;-inkscape-font-specification:f-0-0"
                 x="0 5 7.5 12.5"
                 y="0"
                 sodipodi:role="line"
                 id="tspan36">0.05</tspan></text>
</g><path
             d="m 232.621,1177.47 31.481,0 m 2938.008,0 -31.52,0"
             style="fill:none;stroke:#000000;stroke-opacity:1;stroke-width:15;stroke-linecap:butt;stroke-linejoin:miter;stroke-miterlimit:3.8;stroke-dasharray:none"
             id="path38" /><g
             id="g40"
             transform="scale(10,10)"><text
               transform="matrix(1,0,0,-1,4.76016,114.411)"
               id="text42"><tspan
                 style="fill:#000000;fill-opacity:1;fill-rule:nonzero;stroke:none;font-family:f-0;font-variant:normal;font-size:10;writing-mode:lr;-inkscape-font-specification:f-0-0"
                 x="0 5 7.5"
                 y="0"
                 sodipodi:role="line"
                 id="tspan44">0.1</tspan></text>
</g><path
             d="m 232.621,1441.96 31.481,0 m 2938.008,0 -31.52,0"
             style="fill:none;stroke:#000000;stroke-opacity:1;stroke-width:15;stroke-linecap:butt;stroke-linejoin:miter;stroke-miterlimit:3.8;stroke-dasharray:none"
             id="path46" /><g
             id="g48"
             transform="scale(10,10)"><text
               transform="matrix(1,0,0,-1,-0.239844,140.861)"
               id="text50"><tspan
                 style="fill:#000000;fill-opacity:1;fill-rule:nonzero;stroke:none;font-family:f-0;font-variant:normal;font-size:10;writing-mode:lr;-inkscape-font-specification:f-0-0"
                 x="0 5 7.5 12.5"
                 y="0"
                 sodipodi:role="line"
                 id="tspan52">0.15</tspan></text>
</g><path
             d="m 232.621,1706.96 31.481,0 m 2938.008,0 -31.52,0"
             style="fill:none;stroke:#000000;stroke-opacity:1;stroke-width:15;stroke-linecap:butt;stroke-linejoin:miter;stroke-miterlimit:3.8;stroke-dasharray:none"
             id="path54" /><g
             id="g56"
             transform="scale(10,10)"><text
               transform="matrix(1,0,0,-1,4.76016,167.361)"
               id="text58"><tspan
                 style="fill:#000000;fill-opacity:1;fill-rule:nonzero;stroke:none;font-family:f-0;font-variant:normal;font-size:10;writing-mode:lr;-inkscape-font-specification:f-0-0"
                 x="0 5 7.5"
                 y="0"
                 sodipodi:role="line"
                 id="tspan60">0.2</tspan></text>
</g><path
             d="m 232.621,1971.96 31.481,0 m 2938.008,0 -31.52,0"
             style="fill:none;stroke:#000000;stroke-opacity:1;stroke-width:15;stroke-linecap:butt;stroke-linejoin:miter;stroke-miterlimit:3.8;stroke-dasharray:none"
             id="path62" /><g
             id="g64"
             transform="scale(10,10)"><text
               transform="matrix(1,0,0,-1,-0.239844,193.861)"
               id="text66"><tspan
                 style="fill:#000000;fill-opacity:1;fill-rule:nonzero;stroke:none;font-family:f-0;font-variant:normal;font-size:10;writing-mode:lr;-inkscape-font-specification:f-0-0"
                 x="0 5 7.5 12.5"
                 y="0"
                 sodipodi:role="line"
                 id="tspan68">0.25</tspan></text>
<text
               transform="matrix(0.707107,-0.707107,-0.707107,-0.707107,80.302,56.3879)"
               id="text70"><tspan
                 style="fill:#000000;fill-opacity:1;fill-rule:nonzero;stroke:none;font-family:f-0;font-variant:normal;font-size:10.00000309;writing-mode:lr;-inkscape-font-specification:f-0-0"
                 x="0 5.56000172 12.78000395 19.45000602 28.34000877 31.6700098 40.56001255 45.00001393 48.89001513 53.89001668 58.33001805"
                 y="0"
                 sodipodi:role="line"
                 id="tspan72">SGBM-Masked</tspan><tspan
                 style="fill:#000000;fill-opacity:1;fill-rule:nonzero;stroke:none;font-family:f-0;font-variant:normal;font-size:10.00000309;writing-mode:lr;-inkscape-font-specification:f-0-0"
                 x="42.002113 47.56211472 54.78211695 61.45211902 70.34212177 73.6721228 79.23212452 84.23212607 87.01212693"
                 y="-42.002113"
                 sodipodi:role="line"
                 id="tspan74">SGBM-Full</tspan><tspan
                 style="fill:#000000;fill-opacity:1;fill-rule:nonzero;stroke:none;font-family:f-0;font-variant:normal;font-size:10.00000309;writing-mode:lr;-inkscape-font-specification:f-0-0"
                 x="83.96892598 91.18892822 98.40893045 105.07893252 109.51893389 114.51893544 118.40893664 123.40893819 127.29893939 130.62894042 139.51894317 143.95894455 147.84894575 152.8489473 157.28894867"
                 y="-83.968926"
                 sodipodi:role="line"
                 id="tspan76">ADCensus-Masked</tspan><tspan
                 style="fill:#000000;fill-opacity:1;fill-rule:nonzero;stroke:none;font-family:f-0;font-variant:normal;font-size:10.00000309;writing-mode:lr;-inkscape-font-specification:f-0-0"
                 x="125.97103898 133.19104122 140.41104345 147.08104551 151.52104689 156.52104844 160.41104964 165.41105119 169.30105239 172.63105342 178.19105514 183.19105669 185.97105755"
                 y="-125.97104"
                 sodipodi:role="line"
                 id="tspan78">ADCensus-Full</tspan></text>
</g><path
             d="m 232.621,647.461 2969.49,0 0,1483.48 -2969.49,0 0,-1483.48 z"
             style="fill:none;stroke:#000000;stroke-opacity:1;stroke-width:15;stroke-linecap:butt;stroke-linejoin:miter;stroke-miterlimit:3.8;stroke-dasharray:none"
             id="path80" /><g
             id="g82"
             transform="scale(10,10)"><text
               transform="scale(1,-1)"
               id="text84"
               x="110.80827"
               y="-220.98676"><tspan
                 style="font-size:11.19999981px;font-variant:normal;font-weight:bold;writing-mode:lr-tb;fill:#000000;fill-opacity:1;fill-rule:nonzero;stroke:none;font-family:DejaVu Sans;-inkscape-font-specification:DejaVuSans-Bold"
                 x="110.80827"
                 y="-220.98676"
                 sodipodi:role="line"
                 id="tspan86">Average Outliers</tspan></text>
<text
               transform="matrix(1,0,0,-1,41.7633,201.6457)"
               id="text88"><tspan
                 style="fill:#000000;fill-opacity:1;fill-rule:nonzero;stroke:none;font-family:f-0;font-variant:normal;font-size:8.8;writing-mode:lr;-inkscape-font-specification:f-0-0"
                 x="0 3.75000032 7.50000064 9.99726464 13.74726496"
                 y="0"
                 sodipodi:role="line"
                 id="tspan90">17-29</tspan></text>
</g><path
             d="m 652.621,2024.46 271.48,0 0,50 -271.48,0 0,-50 z"
             style="fill:#ff0000;fill-opacity:1;fill-rule:nonzero;stroke:none"
             id="path92" /><path
             d="m 652.621,2024.46 271.48,0 0,50 -271.48,0 0,-50 z"
             style="fill:none;stroke:#000000;stroke-opacity:1;stroke-width:7.5;stroke-linecap:butt;stroke-linejoin:miter;stroke-miterlimit:3.8;stroke-dasharray:none"
             id="path94" /><path
             d="m 595.121,647.469 106.988,0 0,636.48 -106.988,0 0,-636.48 z"
             style="fill:#ff0000;fill-opacity:1;fill-rule:nonzero;stroke:none"
             id="path96" /><path
             d="m 595.121,647.461 106.48,0 0,635.98 -106.48,0 0,-635.98 z"
             style="fill:none;stroke:#000000;stroke-opacity:1;stroke-width:7.5;stroke-linecap:butt;stroke-linejoin:miter;stroke-miterlimit:3.8;stroke-dasharray:none"
             id="path98" /><path
             d="m 1188.59,647.469 107.5,0 0,583.48 -107.5,0 0,-583.48 z"
             style="fill:#ff0000;fill-opacity:1;fill-rule:nonzero;stroke:none"
             id="path100" /><path
             d="m 1188.59,647.469 106.988,0 0,583.012 -106.988,0 0,-583.012 z"
             style="fill:none;stroke:#000000;stroke-opacity:1;stroke-width:7.5;stroke-linecap:butt;stroke-linejoin:miter;stroke-miterlimit:3.8;stroke-dasharray:none"
             id="path102" /><path
             d="m 1782.62,647.469 107.5,0 0,1218.98 -107.5,0 0,-1218.98 z"
             style="fill:#ff0000;fill-opacity:1;fill-rule:nonzero;stroke:none"
             id="path104" /><path
             d="m 1782.62,647.461 106.988,0 0,1218.48 -106.988,0 0,-1218.48 z"
             style="fill:none;stroke:#000000;stroke-opacity:1;stroke-width:7.5;stroke-linecap:butt;stroke-linejoin:miter;stroke-miterlimit:3.8;stroke-dasharray:none"
             id="path106" /><path
             d="m 2376.6,647.469 107.5,0 0,1430.98 -107.5,0 0,-1430.98 z"
             style="fill:#ff0000;fill-opacity:1;fill-rule:nonzero;stroke:none"
             id="path108" /><path
             d="m 2376.6,647.469 106.988,0 0,1430.51 -106.988,0 0,-1430.51 z"
             style="fill:none;stroke:#000000;stroke-opacity:1;stroke-width:7.5;stroke-linecap:butt;stroke-linejoin:miter;stroke-miterlimit:3.8;stroke-dasharray:none"
             id="path110" /><g
             id="g112"
             transform="scale(10,10)"><text
               transform="matrix(1,0,0,-1,41.7629,191.646)"
               id="text114"><tspan
                 style="fill:#000000;fill-opacity:1;fill-rule:nonzero;stroke:none;font-family:f-0;font-variant:normal;font-size:8.8;writing-mode:lr;-inkscape-font-specification:f-0-0"
                 x="0 3.75000032 7.50000064 9.99726464 13.74726496"
                 y="0"
                 sodipodi:role="line"
                 id="tspan116">30-49</tspan></text>
</g><path
             d="m 652.621,1924.46 271.48,0 0,50 -271.48,0 0,-50 z"
             style="fill:#00ff00;fill-opacity:1;fill-rule:nonzero;stroke:none"
             id="path118" /><path
             d="m 652.621,1924.46 271.48,0 0,50 -271.48,0 0,-50 z"
             style="fill:none;stroke:#000000;stroke-opacity:1;stroke-width:7.5;stroke-linecap:butt;stroke-linejoin:miter;stroke-miterlimit:3.8;stroke-dasharray:none"
             id="path120" /><path
             d="m 713.59,647.469 107.5,0 0,583.48 -107.5,0 0,-583.48 z"
             style="fill:#00ff00;fill-opacity:1;fill-rule:nonzero;stroke:none"
             id="path122" /><path
             d="m 713.59,647.469 106.988,0 0,583.012 -106.988,0 0,-583.012 z"
             style="fill:none;stroke:#000000;stroke-opacity:1;stroke-width:7.5;stroke-linecap:butt;stroke-linejoin:miter;stroke-miterlimit:3.8;stroke-dasharray:none"
             id="path124" /><path
             d="m 1307.62,647.469 107.5,0 0,530.512 -107.5,0 0,-530.512 z"
             style="fill:#00ff00;fill-opacity:1;fill-rule:nonzero;stroke:none"
             id="path126" /><path
             d="m 1307.62,647.469 106.988,0 0,530 -106.988,0 0,-530 z"
             style="fill:none;stroke:#000000;stroke-opacity:1;stroke-width:7.5;stroke-linecap:butt;stroke-linejoin:miter;stroke-miterlimit:3.8;stroke-dasharray:none"
             id="path128" /><path
             d="m 1901.6,647.469 107.5,0 0,1165.98 -107.5,0 0,-1165.98 z"
             style="fill:#00ff00;fill-opacity:1;fill-rule:nonzero;stroke:none"
             id="path130" /><path
             d="m 1901.6,647.469 106.988,0 0,1165.51 -106.988,0 0,-1165.51 z"
             style="fill:none;stroke:#000000;stroke-opacity:1;stroke-width:7.5;stroke-linecap:butt;stroke-linejoin:miter;stroke-miterlimit:3.8;stroke-dasharray:none"
             id="path132" /><path
             d="m 2495.59,647.469 107.031,0 0,1378.01 -107.031,0 0,-1378.01 z"
             style="fill:#00ff00;fill-opacity:1;fill-rule:nonzero;stroke:none"
             id="path134" /><path
             d="m 2495.59,647.469 106.52,0 0,1377.5 -106.52,0 0,-1377.5 z"
             style="fill:none;stroke:#000000;stroke-opacity:1;stroke-width:7.5;stroke-linecap:butt;stroke-linejoin:miter;stroke-miterlimit:3.8;stroke-dasharray:none"
             id="path136" /><g
             id="g138"
             transform="scale(10,10)"><text
               transform="matrix(1,0,0,-1,41.7629,181.646)"
               id="text140"><tspan
                 style="fill:#000000;fill-opacity:1;fill-rule:nonzero;stroke:none;font-family:f-0;font-variant:normal;font-size:8.8;writing-mode:lr;-inkscape-font-specification:f-0-0"
                 x="0 3.75000032 7.50000064 9.99726464 13.74726496"
                 y="0"
                 sodipodi:role="line"
                 id="tspan142">50-69</tspan></text>
</g><path
             d="m 652.621,1824.46 271.48,0 0,50 -271.48,0 0,-50 z"
             style="fill:#0000ff;fill-opacity:1;fill-rule:nonzero;stroke:none"
             id="path144" /><path
             d="m 652.621,1824.46 271.48,0 0,50 -271.48,0 0,-50 z"
             style="fill:none;stroke:#000000;stroke-opacity:1;stroke-width:7.5;stroke-linecap:butt;stroke-linejoin:miter;stroke-miterlimit:3.8;stroke-dasharray:none"
             id="path146" /><path
             d="m 832.621,647.469 106.988,0 0,477.5 -106.988,0 0,-477.5 z"
             style="fill:#0000ff;fill-opacity:1;fill-rule:nonzero;stroke:none"
             id="path148" /><path
             d="m 832.621,647.469 106.48,0 0,476.992 -106.48,0 0,-476.992 z"
             style="fill:none;stroke:#000000;stroke-opacity:1;stroke-width:7.5;stroke-linecap:butt;stroke-linejoin:miter;stroke-miterlimit:3.8;stroke-dasharray:none"
             id="path150" /><path
             d="m 1426.09,647.469 107.5,0 0,424.492 -107.5,0 0,-424.492 z"
             style="fill:#0000ff;fill-opacity:1;fill-rule:nonzero;stroke:none"
             id="path152" /><path
             d="m 1426.09,647.469 106.988,0 0,423.98 -106.988,0 0,-423.98 z"
             style="fill:none;stroke:#000000;stroke-opacity:1;stroke-width:7.5;stroke-linecap:butt;stroke-linejoin:miter;stroke-miterlimit:3.8;stroke-dasharray:none"
             id="path154" /><path
             d="m 2020.12,647.469 107.5,0 0,953.98 -107.5,0 0,-953.98 z"
             style="fill:#0000ff;fill-opacity:1;fill-rule:nonzero;stroke:none"
             id="path156" /><path
             d="m 2020.12,647.461 106.988,0 0,953.48 -106.988,0 0,-953.48 z"
             style="fill:none;stroke:#000000;stroke-opacity:1;stroke-width:7.5;stroke-linecap:butt;stroke-linejoin:miter;stroke-miterlimit:3.8;stroke-dasharray:none"
             id="path158" /><path
             d="m 2614.1,647.469 107.5,0 0,1165.98 -107.5,0 0,-1165.98 z"
             style="fill:#0000ff;fill-opacity:1;fill-rule:nonzero;stroke:none"
             id="path160" /><path
             d="m 2614.1,647.469 106.988,0 0,1165.51 -106.988,0 0,-1165.51 z"
             style="fill:none;stroke:#000000;stroke-opacity:1;stroke-width:7.5;stroke-linecap:butt;stroke-linejoin:miter;stroke-miterlimit:3.8;stroke-dasharray:none"
             id="path162" /><g
             id="g164"
             transform="scale(10,10)"><text
               transform="matrix(1,0,0,-1,41.7629,171.646)"
               id="text166"><tspan
                 style="fill:#000000;fill-opacity:1;fill-rule:nonzero;stroke:none;font-family:f-0;font-variant:normal;font-size:8.8;writing-mode:lr;-inkscape-font-specification:f-0-0"
                 x="0 3.75000032 7.50000064 9.99726464 13.74726496"
                 y="0"
                 sodipodi:role="line"
                 id="tspan168">70-83</tspan></text>
</g><path
             d="m 652.621,1724.46 271.48,0 0,50 -271.48,0 0,-50 z"
             style="fill:#ff00ff;fill-opacity:1;fill-rule:nonzero;stroke:none"
             id="path170" /><path
             d="m 652.621,1724.46 271.48,0 0,50 -271.48,0 0,-50 z"
             style="fill:none;stroke:#000000;stroke-opacity:1;stroke-width:7.5;stroke-linecap:butt;stroke-linejoin:miter;stroke-miterlimit:3.8;stroke-dasharray:none"
             id="path172" /><path
             d="m 951.09,647.469 107.5,0 0,6.99219 -107.5,0 0,-6.99219 z"
             style="fill:#ff00ff;fill-opacity:1;fill-rule:nonzero;stroke:none"
             id="path174" /><path
             d="m 951.09,647.469 106.988,0 0,6.48047 -106.988,0 0,-6.48047 z"
             style="fill:none;stroke:#000000;stroke-opacity:1;stroke-width:7.5;stroke-linecap:butt;stroke-linejoin:miter;stroke-miterlimit:3.8;stroke-dasharray:none"
             id="path176" /><path
             d="m 1545.12,647.469 107.5,0 0,3.01172 -107.5,0 0,-3.01172 z"
             style="fill:#ff00ff;fill-opacity:1;fill-rule:nonzero;stroke:none"
             id="path178" /><path
             d="m 1545.12,647.469 106.988,0 0,2.5 -106.988,0 0,-2.5 z"
             style="fill:none;stroke:#000000;stroke-opacity:1;stroke-width:7.5;stroke-linecap:butt;stroke-linejoin:miter;stroke-miterlimit:3.8;stroke-dasharray:none"
             id="path180" /><path
             d="m 2139.1,647.469 107.5,0 0,16.4805 -107.5,0 0,-16.4805 z"
             style="fill:#ff00ff;fill-opacity:1;fill-rule:nonzero;stroke:none"
             id="path182" /><path
             d="m 2139.1,647.461 106.988,0 0,15.9805 -106.988,0 0,-15.9805 z"
             style="fill:none;stroke:#000000;stroke-opacity:1;stroke-width:7.5;stroke-linecap:butt;stroke-linejoin:miter;stroke-miterlimit:3.8;stroke-dasharray:none"
             id="path184" /><path
             d="m 2733.09,647.469 107.031,0 0,10.9805 -107.031,0 0,-10.9805 z"
             style="fill:#ff00ff;fill-opacity:1;fill-rule:nonzero;stroke:none"
             id="path186" /><path
             d="m 2733.09,647.469 106.52,0 0,10.5117 -106.52,0 0,-10.5117 z"
             style="fill:none;stroke:#000000;stroke-opacity:1;stroke-width:7.5;stroke-linecap:butt;stroke-linejoin:miter;stroke-miterlimit:3.8;stroke-dasharray:none"
             id="path188" /><path
             d="m 232.621,647.461 2969.49,0 0,1483.48 -2969.49,0 0,-1483.48 z"
             style="fill:none;stroke:#000000;stroke-opacity:1;stroke-width:15;stroke-linecap:butt;stroke-linejoin:miter;stroke-miterlimit:3.8;stroke-dasharray:none"
             id="path190" /></g></g></g></g></svg>