<?xml version="1.0" encoding="UTF-8" standalone="no"?>
<!-- Created with Inkscape (http://www.inkscape.org/) -->

<svg
   xmlns:dc="http://purl.org/dc/elements/1.1/"
   xmlns:cc="http://creativecommons.org/ns#"
   xmlns:rdf="http://www.w3.org/1999/02/22-rdf-syntax-ns#"
   xmlns:svg="http://www.w3.org/2000/svg"
   xmlns="http://www.w3.org/2000/svg"
   xmlns:sodipodi="http://sodipodi.sourceforge.net/DTD/sodipodi-0.dtd"
   xmlns:inkscape="http://www.inkscape.org/namespaces/inkscape"
   id="svg2"
   version="1.1"
   inkscape:version="0.48.3.1 r9886"
   width="401.25"
   height="287.5"
   xml:space="preserve"
   sodipodi:docname="outlchart.svg"><metadata
     id="metadata8"><rdf:RDF><cc:Work
         rdf:about=""><dc:format>image/svg+xml</dc:format><dc:type
           rdf:resource="http://purl.org/dc/dcmitype/StillImage" /><dc:title /></cc:Work></rdf:RDF></metadata><defs
     id="defs6"><clipPath
       clipPathUnits="userSpaceOnUse"
       id="clipPath18"><path
         d="m 0,2299 3200,0 L 3200,19 0,19 0,2299 z"
         id="path20" /></clipPath></defs><sodipodi:namedview
     pagecolor="#ffffff"
     bordercolor="#666666"
     borderopacity="1"
     objecttolerance="10"
     gridtolerance="10"
     guidetolerance="10"
     inkscape:pageopacity="0"
     inkscape:pageshadow="2"
     inkscape:window-width="1855"
     inkscape:window-height="1056"
     id="namedview4"
     showgrid="false"
     inkscape:zoom="1.6417391"
     inkscape:cx="152.03435"
     inkscape:cy="110.98176"
     inkscape:window-x="65"
     inkscape:window-y="24"
     inkscape:window-maximized="1"
     inkscape:current-layer="g10" /><g
     id="g10"
     inkscape:groupmode="layer"
     inkscape:label="ink_ext_XXXXXX"
     transform="matrix(1.25,0,0,-1.25,0,287.5)"><g
   id="g12"
   transform="scale(0.1,0.1)"><g
     id="g14"><g
       id="g16"
       clip-path="url(#clipPath18)"><path
         d="m 228.441,651.496 31.481,0 m 2938.008,0 -31.52,0"
         style="fill:none;stroke:#000000;stroke-opacity:1;stroke-width:15;stroke-linecap:butt;stroke-linejoin:miter;stroke-miterlimit:3.8;stroke-dasharray:none"
         id="path22" /><g
         id="g24"
         transform="scale(10,10)"><text
   transform="matrix(1,0,0,-1,11.841,61.8141)"
   id="text26"><tspan
     style="fill:#000000;fill-opacity:1;fill-rule:nonzero;stroke:none;font-family:DejaVu Sans;font-variant:normal;font-weight:normal;font-size:10;writing-mode:lr;-inkscape-font-specification:DejaVuSans"
     x="0"
     y="0"
     id="tspan28">0</tspan></text>

</g><path
         d="m 228.441,916.496 31.481,0 m 2938.008,0 -31.52,0"
         style="fill:none;stroke:#000000;stroke-opacity:1;stroke-width:15;stroke-linecap:butt;stroke-linejoin:miter;stroke-miterlimit:3.8;stroke-dasharray:none"
         id="path30" /><g
         id="g32"
         transform="scale(10,10)"><text
   transform="matrix(1,0,0,-1,-0.659375,88.3141)"
   id="text34"><tspan
     style="fill:#000000;fill-opacity:1;fill-rule:nonzero;stroke:none;font-family:DejaVu Sans;font-variant:normal;font-weight:normal;font-size:10;writing-mode:lr;-inkscape-font-specification:DejaVuSans"
     x="0 4.9977 7.498989 12.497079"
     y="0"
     sodipodi:role="line"
     id="tspan36">0.05</tspan></text>

</g><path
         d="m 228.441,1181.5 31.481,0 m 2938.008,0 -31.52,0"
         style="fill:none;stroke:#000000;stroke-opacity:1;stroke-width:15;stroke-linecap:butt;stroke-linejoin:miter;stroke-miterlimit:3.8;stroke-dasharray:none"
         id="path38" /><g
         id="g40"
         transform="scale(10,10)"><text
   transform="matrix(1,0,0,-1,4.34102,114.814)"
   id="text42"><tspan
     style="fill:#000000;fill-opacity:1;fill-rule:nonzero;stroke:none;font-family:DejaVu Sans;font-variant:normal;font-weight:normal;font-size:10;writing-mode:lr;-inkscape-font-specification:DejaVuSans"
     x="0 4.9977 7.498989"
     y="0"
     sodipodi:role="line"
     id="tspan44">0.1</tspan></text>

</g><path
         d="m 228.441,1445.99 31.481,0 m 2938.008,0 -31.52,0"
         style="fill:none;stroke:#000000;stroke-opacity:1;stroke-width:15;stroke-linecap:butt;stroke-linejoin:miter;stroke-miterlimit:3.8;stroke-dasharray:none"
         id="path46" /><g
         id="g48"
         transform="scale(10,10)"><text
   transform="matrix(1,0,0,-1,-0.659375,141.264)"
   id="text50"><tspan
     style="fill:#000000;fill-opacity:1;fill-rule:nonzero;stroke:none;font-family:DejaVu Sans;font-variant:normal;font-weight:normal;font-size:10;writing-mode:lr;-inkscape-font-specification:DejaVuSans"
     x="0 4.9977 7.498989 12.497079"
     y="0"
     sodipodi:role="line"
     id="tspan52">0.15</tspan></text>

</g><path
         d="m 228.441,1710.99 31.481,0 m 2938.008,0 -31.52,0"
         style="fill:none;stroke:#000000;stroke-opacity:1;stroke-width:15;stroke-linecap:butt;stroke-linejoin:miter;stroke-miterlimit:3.8;stroke-dasharray:none"
         id="path54" /><g
         id="g56"
         transform="scale(10,10)"><text
   transform="matrix(1,0,0,-1,4.34102,167.764)"
   id="text58"><tspan
     style="fill:#000000;fill-opacity:1;fill-rule:nonzero;stroke:none;font-family:DejaVu Sans;font-variant:normal;font-weight:normal;font-size:10;writing-mode:lr;-inkscape-font-specification:DejaVuSans"
     x="0 4.9977 7.498989"
     y="0"
     sodipodi:role="line"
     id="tspan60">0.2</tspan></text>

</g><path
         d="m 228.441,1975.99 31.481,0 m 2938.008,0 -31.52,0"
         style="fill:none;stroke:#000000;stroke-opacity:1;stroke-width:15;stroke-linecap:butt;stroke-linejoin:miter;stroke-miterlimit:3.8;stroke-dasharray:none"
         id="path62" /><g
         id="g64"
         transform="scale(10,10)"><text
   transform="matrix(1,0,0,-1,-0.659375,194.264)"
   id="text66"><tspan
     style="fill:#000000;fill-opacity:1;fill-rule:nonzero;stroke:none;font-family:DejaVu Sans;font-variant:normal;font-weight:normal;font-size:10;writing-mode:lr;-inkscape-font-specification:DejaVuSans"
     x="0 4.9977 7.498989 12.497079"
     y="0"
     sodipodi:role="line"
     id="tspan68">0.25</tspan></text>

<text
   transform="matrix(0.70710678,-0.70710678,-0.70710678,-0.70710678,0,0)"
   id="text70"
   x="9.5398617"
   y="-92.117775"
   style="font-size:12.00000381px"><tspan
     style="font-size:8.00000001px;font-variant:normal;font-weight:normal;writing-mode:lr-tb;fill:#000000;fill-opacity:1;fill-rule:nonzero;stroke:none;font-family:DejaVu Sans;-inkscape-font-specification:DejaVuSans"
     sodipodi:role="line"
     id="tspan72"
     x="9.5398617"
     y="-92.117775">SGBM-Mask</tspan><tspan
     style="font-size:10.00000572px;font-variant:normal;font-weight:normal;writing-mode:lr-tb;fill:#000000;fill-opacity:1;fill-rule:nonzero;stroke:none;font-family:DejaVu Sans;-inkscape-font-specification:DejaVuSans"
     x="9.5398617"
     sodipodi:role="line"
     id="tspan74"
     y="-79.617767" /><tspan
     style="font-size:10.00000572px;font-variant:normal;font-weight:normal;writing-mode:lr-tb;fill:#000000;fill-opacity:1;fill-rule:nonzero;stroke:none;font-family:DejaVu Sans;-inkscape-font-specification:DejaVuSans"
     x="9.5398617"
     sodipodi:role="line"
     id="tspan78"
     y="-67.11776" /></text>

</g><path
         d="m 228.441,651.496 2969.49,0 0,1483.48 -2969.49,0 0,-1483.48 z"
         style="fill:none;stroke:#000000;stroke-opacity:1;stroke-width:15;stroke-linecap:butt;stroke-linejoin:miter;stroke-miterlimit:3.8;stroke-dasharray:none"
         id="path80" /><g
         id="g82"
         transform="scale(10,10)"><text
   transform="scale(1,-1)"
   id="text84"
   x="113.589"
   y="-218.18999"><tspan
     style="font-size:11.19999981px;font-variant:normal;font-weight:normal;writing-mode:lr-tb;fill:#000000;fill-opacity:1;fill-rule:nonzero;stroke:none;font-family:DejaVu Sans;-inkscape-font-specification:DejaVuSans-Bold"
     sodipodi:role="line"
     id="tspan86"
     x="113.589"
     y="-218.18999">Average Outliers</tspan></text>

<text
   transform="matrix(1,0,0,-1,41.3441,202.049)"
   id="text88"><tspan
     style="fill:#000000;fill-opacity:1;fill-rule:nonzero;stroke:none;font-family:DejaVu Sans;font-variant:normal;font-weight:normal;font-size:8.8;writing-mode:lr;-inkscape-font-specification:DejaVuSans"
     x="0 3.7479728 7.4959456 9.99462024 13.74259304"
     y="0"
     sodipodi:role="line"
     id="tspan90">17-29</tspan></text>

</g><path
         d="m 648.441,2028.49 271.48,0 0,50 -271.48,0 0,-50 z"
         style="fill:#ff0000;fill-opacity:1;fill-rule:nonzero;stroke:none"
         id="path92" /><path
         d="m 648.441,2028.49 271.48,0 0,50 -271.48,0 0,-50 z"
         style="fill:none;stroke:#000000;stroke-opacity:1;stroke-width:7.5;stroke-linecap:butt;stroke-linejoin:miter;stroke-miterlimit:3.8;stroke-dasharray:none"
         id="path94" /><path
         d="m 590.941,651.496 106.988,0 0,636.48 -106.988,0 0,-636.48 z"
         style="fill:#ff0000;fill-opacity:1;fill-rule:nonzero;stroke:none"
         id="path96" /><path
         d="m 590.941,651.496 106.48,0 0,635.98 -106.48,0 0,-635.98 z"
         style="fill:none;stroke:#000000;stroke-opacity:1;stroke-width:7.5;stroke-linecap:butt;stroke-linejoin:miter;stroke-miterlimit:3.8;stroke-dasharray:none"
         id="path98" /><path
         d="m 1184.41,651.496 107.5,0 0,583.48 -107.5,0 0,-583.48 z"
         style="fill:#ff0000;fill-opacity:1;fill-rule:nonzero;stroke:none"
         id="path100" /><path
         d="m 1184.41,651.496 106.949,0 0,583.012 -106.949,0 0,-583.012 z"
         style="fill:none;stroke:#000000;stroke-opacity:1;stroke-width:7.5;stroke-linecap:butt;stroke-linejoin:miter;stroke-miterlimit:3.8;stroke-dasharray:none"
         id="path102" /><path
         d="m 1778.44,651.496 107.5,0 0,1218.98 -107.5,0 0,-1218.98 z"
         style="fill:#ff0000;fill-opacity:1;fill-rule:nonzero;stroke:none"
         id="path104" /><path
         d="m 1778.44,651.496 106.988,0 0,1218.48 -106.988,0 0,-1218.48 z"
         style="fill:none;stroke:#000000;stroke-opacity:1;stroke-width:7.5;stroke-linecap:butt;stroke-linejoin:miter;stroke-miterlimit:3.8;stroke-dasharray:none"
         id="path106" /><path
         d="m 2372.42,651.496 107.5,0 0,1430.98 -107.5,0 0,-1430.98 z"
         style="fill:#ff0000;fill-opacity:1;fill-rule:nonzero;stroke:none"
         id="path108" /><path
         d="m 2372.42,651.496 106.988,0 0,1430.51 -106.988,0 0,-1430.51 z"
         style="fill:none;stroke:#000000;stroke-opacity:1;stroke-width:7.5;stroke-linecap:butt;stroke-linejoin:miter;stroke-miterlimit:3.8;stroke-dasharray:none"
         id="path110" /><g
         id="g112"
         transform="scale(10,10)"><text
   transform="matrix(1,0,0,-1,41.3438,192.05)"
   id="text114"><tspan
     style="fill:#000000;fill-opacity:1;fill-rule:nonzero;stroke:none;font-family:DejaVu Sans;font-variant:normal;font-weight:normal;font-size:8.8;writing-mode:lr;-inkscape-font-specification:DejaVuSans"
     x="0 3.7479728 7.4959456 9.99462024 13.74259304"
     y="0"
     sodipodi:role="line"
     id="tspan116">30-49</tspan></text>

</g><path
         d="m 648.441,1928.49 271.48,0 0,50 -271.48,0 0,-50 z"
         style="fill:#00ff00;fill-opacity:1;fill-rule:nonzero;stroke:none"
         id="path118" /><path
         d="m 648.441,1928.49 271.48,0 0,50 -271.48,0 0,-50 z"
         style="fill:none;stroke:#000000;stroke-opacity:1;stroke-width:7.5;stroke-linecap:butt;stroke-linejoin:miter;stroke-miterlimit:3.8;stroke-dasharray:none"
         id="path120" /><path
         d="m 709.41,651.496 107.5,0 0,583.48 -107.5,0 0,-583.48 z"
         style="fill:#00ff00;fill-opacity:1;fill-rule:nonzero;stroke:none"
         id="path122" /><path
         d="m 709.41,651.496 106.949,0 0,583.012 -106.949,0 0,-583.012 z"
         style="fill:none;stroke:#000000;stroke-opacity:1;stroke-width:7.5;stroke-linecap:butt;stroke-linejoin:miter;stroke-miterlimit:3.8;stroke-dasharray:none"
         id="path124" /><path
         d="m 1303.44,651.496 107.5,0 0,530.512 -107.5,0 0,-530.512 z"
         style="fill:#00ff00;fill-opacity:1;fill-rule:nonzero;stroke:none"
         id="path126" /><path
         d="m 1303.44,651.496 106.988,0 0,530 -106.988,0 0,-530 z"
         style="fill:none;stroke:#000000;stroke-opacity:1;stroke-width:7.5;stroke-linecap:butt;stroke-linejoin:miter;stroke-miterlimit:3.8;stroke-dasharray:none"
         id="path128" /><path
         d="m 1897.42,651.496 107.5,0 0,1165.98 -107.5,0 0,-1165.98 z"
         style="fill:#00ff00;fill-opacity:1;fill-rule:nonzero;stroke:none"
         id="path130" /><path
         d="m 1897.42,651.496 106.988,0 0,1165.51 -106.988,0 0,-1165.51 z"
         style="fill:none;stroke:#000000;stroke-opacity:1;stroke-width:7.5;stroke-linecap:butt;stroke-linejoin:miter;stroke-miterlimit:3.8;stroke-dasharray:none"
         id="path132" /><path
         d="m 2491.41,651.496 107.031,0 0,1378.01 -107.031,0 0,-1378.01 z"
         style="fill:#00ff00;fill-opacity:1;fill-rule:nonzero;stroke:none"
         id="path134" /><path
         d="m 2491.41,651.496 106.52,0 0,1377.5 -106.52,0 0,-1377.5 z"
         style="fill:none;stroke:#000000;stroke-opacity:1;stroke-width:7.5;stroke-linecap:butt;stroke-linejoin:miter;stroke-miterlimit:3.8;stroke-dasharray:none"
         id="path136" /><g
         id="g138"
         transform="scale(10,10)"><text
   transform="matrix(1,0,0,-1,41.3438,182.05)"
   id="text140"><tspan
     style="fill:#000000;fill-opacity:1;fill-rule:nonzero;stroke:none;font-family:DejaVu Sans;font-variant:normal;font-weight:normal;font-size:8.8;writing-mode:lr;-inkscape-font-specification:DejaVuSans"
     x="0 3.7479728 7.4959456 9.99462024 13.74259304"
     y="0"
     sodipodi:role="line"
     id="tspan142">50-69</tspan></text>

</g><path
         d="m 648.441,1828.49 271.48,0 0,50 -271.48,0 0,-50 z"
         style="fill:#0000ff;fill-opacity:1;fill-rule:nonzero;stroke:none"
         id="path144" /><path
         d="m 648.441,1828.49 271.48,0 0,50 -271.48,0 0,-50 z"
         style="fill:none;stroke:#000000;stroke-opacity:1;stroke-width:7.5;stroke-linecap:butt;stroke-linejoin:miter;stroke-miterlimit:3.8;stroke-dasharray:none"
         id="path146" /><path
         d="m 828.441,651.496 106.988,0 0,477.5 -106.988,0 0,-477.5 z"
         style="fill:#0000ff;fill-opacity:1;fill-rule:nonzero;stroke:none"
         id="path148" /><path
         d="m 828.441,651.496 106.48,0 0,476.992 -106.48,0 0,-476.992 z"
         style="fill:none;stroke:#000000;stroke-opacity:1;stroke-width:7.5;stroke-linecap:butt;stroke-linejoin:miter;stroke-miterlimit:3.8;stroke-dasharray:none"
         id="path150" /><path
         d="m 1421.91,651.496 107.5,0 0,424.492 -107.5,0 0,-424.492 z"
         style="fill:#0000ff;fill-opacity:1;fill-rule:nonzero;stroke:none"
         id="path152" /><path
         d="m 1421.91,651.496 106.949,0 0,423.98 -106.949,0 0,-423.98 z"
         style="fill:none;stroke:#000000;stroke-opacity:1;stroke-width:7.5;stroke-linecap:butt;stroke-linejoin:miter;stroke-miterlimit:3.8;stroke-dasharray:none"
         id="path154" /><path
         d="m 2015.94,651.496 107.5,0 0,953.98 -107.5,0 0,-953.98 z"
         style="fill:#0000ff;fill-opacity:1;fill-rule:nonzero;stroke:none"
         id="path156" /><path
         d="m 2015.94,651.496 106.988,0 0,953.48 -106.988,0 0,-953.48 z"
         style="fill:none;stroke:#000000;stroke-opacity:1;stroke-width:7.5;stroke-linecap:butt;stroke-linejoin:miter;stroke-miterlimit:3.8;stroke-dasharray:none"
         id="path158" /><path
         d="m 2609.92,651.496 107.5,0 0,1165.98 -107.5,0 0,-1165.98 z"
         style="fill:#0000ff;fill-opacity:1;fill-rule:nonzero;stroke:none"
         id="path160" /><path
         d="m 2609.92,651.496 106.988,0 0,1165.51 -106.988,0 0,-1165.51 z"
         style="fill:none;stroke:#000000;stroke-opacity:1;stroke-width:7.5;stroke-linecap:butt;stroke-linejoin:miter;stroke-miterlimit:3.8;stroke-dasharray:none"
         id="path162" /><g
         id="g164"
         transform="scale(10,10)"><text
   transform="matrix(1,0,0,-1,41.3438,172.05)"
   id="text166"><tspan
     style="fill:#000000;fill-opacity:1;fill-rule:nonzero;stroke:none;font-family:DejaVu Sans;font-variant:normal;font-weight:normal;font-size:8.8;writing-mode:lr;-inkscape-font-specification:DejaVuSans"
     x="0 3.7479728 7.4959456 9.99462024 13.74259304"
     y="0"
     sodipodi:role="line"
     id="tspan168">70-83</tspan></text>

</g><path
         d="m 648.441,1728.49 271.48,0 0,50 -271.48,0 0,-50 z"
         style="fill:#ff00ff;fill-opacity:1;fill-rule:nonzero;stroke:none"
         id="path170" /><path
         d="m 648.441,1728.49 271.48,0 0,50 -271.48,0 0,-50 z"
         style="fill:none;stroke:#000000;stroke-opacity:1;stroke-width:7.5;stroke-linecap:butt;stroke-linejoin:miter;stroke-miterlimit:3.8;stroke-dasharray:none"
         id="path172" /><path
         d="m 946.91,651.496 107.5,0 0,6.99219 -107.5,0 0,-6.99219 z"
         style="fill:#ff00ff;fill-opacity:1;fill-rule:nonzero;stroke:none"
         id="path174" /><path
         d="m 946.91,651.496 106.949,0 0,6.48047 -106.949,0 0,-6.48047 z"
         style="fill:none;stroke:#000000;stroke-opacity:1;stroke-width:7.5;stroke-linecap:butt;stroke-linejoin:miter;stroke-miterlimit:3.8;stroke-dasharray:none"
         id="path176" /><path
         d="m 1540.94,651.496 107.5,0 0,3.01172 -107.5,0 0,-3.01172 z"
         style="fill:#ff00ff;fill-opacity:1;fill-rule:nonzero;stroke:none"
         id="path178" /><path
         d="m 1540.94,651.496 106.988,0 0,2.5 -106.988,0 0,-2.5 z"
         style="fill:none;stroke:#000000;stroke-opacity:1;stroke-width:7.5;stroke-linecap:butt;stroke-linejoin:miter;stroke-miterlimit:3.8;stroke-dasharray:none"
         id="path180" /><path
         d="m 2134.92,651.496 107.5,0 0,16.4805 -107.5,0 0,-16.4805 z"
         style="fill:#ff00ff;fill-opacity:1;fill-rule:nonzero;stroke:none"
         id="path182" /><path
         d="m 2134.92,651.496 106.988,0 0,15.9805 -106.988,0 0,-15.9805 z"
         style="fill:none;stroke:#000000;stroke-opacity:1;stroke-width:7.5;stroke-linecap:butt;stroke-linejoin:miter;stroke-miterlimit:3.8;stroke-dasharray:none"
         id="path184" /><path
         d="m 2728.91,651.496 107.031,0 0,10.9805 -107.031,0 0,-10.9805 z"
         style="fill:#ff00ff;fill-opacity:1;fill-rule:nonzero;stroke:none"
         id="path186" /><path
         d="m 2728.91,651.496 106.52,0 0,10.5117 -106.52,0 0,-10.5117 z"
         style="fill:none;stroke:#000000;stroke-opacity:1;stroke-width:7.5;stroke-linecap:butt;stroke-linejoin:miter;stroke-miterlimit:3.8;stroke-dasharray:none"
         id="path188" /><path
         d="m 228.441,651.496 2969.49,0 0,1483.48 -2969.49,0 0,-1483.48 z"
         style="fill:none;stroke:#000000;stroke-opacity:1;stroke-width:15;stroke-linecap:butt;stroke-linejoin:miter;stroke-miterlimit:3.8;stroke-dasharray:none"
         id="path190" /></g></g></g><text
   style="font-size:12.00000381px"
   y="-132.61974"
   x="51.111946"
   transform="matrix(0.70710678,-0.70710678,-0.70710678,-0.70710678,0,0)"
   id="text70-8"><tspan
     style="font-size:8.00000001px;font-variant:normal;font-weight:normal;writing-mode:lr-tb;fill:#000000;fill-opacity:1;fill-rule:nonzero;stroke:none;font-family:DejaVu Sans;-inkscape-font-specification:DejaVuSans"
     sodipodi:role="line"
     id="tspan72-2"
     x="51.111946"
     y="-132.61974">SGBM-Full</tspan><tspan
     style="font-size:10.00000572px;font-variant:normal;font-weight:normal;writing-mode:lr-tb;fill:#000000;fill-opacity:1;fill-rule:nonzero;stroke:none;font-family:DejaVu Sans;-inkscape-font-specification:DejaVuSans"
     x="51.111946"
     sodipodi:role="line"
     id="tspan74-7"
     y="-120.11974" /><tspan
     style="font-size:10.00000572px;font-variant:normal;font-weight:normal;writing-mode:lr-tb;fill:#000000;fill-opacity:1;fill-rule:nonzero;stroke:none;font-family:DejaVu Sans;-inkscape-font-specification:DejaVuSans"
     x="51.111946"
     sodipodi:role="line"
     id="tspan78-6"
     y="-107.61973" /></text>

<text
   style="font-size:12.00000381px"
   y="-175.61195"
   x="94.104027"
   transform="matrix(0.70710678,-0.70710678,-0.70710678,-0.70710678,0,0)"
   id="text70-8-8"><tspan
     style="font-size:8px;font-variant:normal;font-weight:normal;writing-mode:lr-tb;fill:#000000;fill-opacity:1;fill-rule:nonzero;stroke:none;font-family:DejaVu Sans;-inkscape-font-specification:DejaVuSans"
     sodipodi:role="line"
     id="tspan72-2-2"
     x="94.104027"
     y="-175.61195">ADCensusB-Mask</tspan><tspan
     style="font-size:10.00000572px;font-variant:normal;font-weight:normal;writing-mode:lr-tb;fill:#000000;fill-opacity:1;fill-rule:nonzero;stroke:none;font-family:DejaVu Sans;-inkscape-font-specification:DejaVuSans"
     x="94.104027"
     sodipodi:role="line"
     id="tspan74-7-8"
     y="-165.61195" /><tspan
     style="font-size:10.00000572px;font-variant:normal;font-weight:normal;writing-mode:lr-tb;fill:#000000;fill-opacity:1;fill-rule:nonzero;stroke:none;font-family:DejaVu Sans;-inkscape-font-specification:DejaVuSans"
     x="94.104027"
     sodipodi:role="line"
     id="tspan78-6-4"
     y="-155.61195" /></text>

<text
   style="font-size:12.00000381px"
   y="-219.10533"
   x="134.43814"
   transform="matrix(0.70710678,-0.70710678,-0.70710678,-0.70710678,0,0)"
   id="text70-8-7"><tspan
     style="font-size:8px;font-variant:normal;font-weight:normal;writing-mode:lr-tb;fill:#000000;fill-opacity:1;fill-rule:nonzero;stroke:none;font-family:DejaVu Sans;-inkscape-font-specification:DejaVuSans"
     sodipodi:role="line"
     id="tspan72-2-4"
     x="134.43814"
     y="-219.10533">ADCensusB-Full</tspan><tspan
     style="font-size:10.00000572px;font-variant:normal;font-weight:normal;writing-mode:lr-tb;fill:#000000;fill-opacity:1;fill-rule:nonzero;stroke:none;font-family:DejaVu Sans;-inkscape-font-specification:DejaVuSans"
     x="134.43814"
     sodipodi:role="line"
     id="tspan74-7-6"
     y="-209.10533" /><tspan
     style="font-size:10.00000572px;font-variant:normal;font-weight:normal;writing-mode:lr-tb;fill:#000000;fill-opacity:1;fill-rule:nonzero;stroke:none;font-family:DejaVu Sans;-inkscape-font-specification:DejaVuSans"
     x="134.43814"
     sodipodi:role="line"
     id="tspan78-6-9"
     y="-199.10533" /></text>

</g></svg>